<?xml version="1.0" standalone="no"?>
<!DOCTYPE svg PUBLIC "-//W3C//DTD SVG 1.1//EN" "http://www.w3.org/Graphics/SVG/1.1/DTD/svg11.dtd" >
<!--
2013-9-30: Created.
-->
<svg>
<metadata>
Created by iconfont
</metadata>
<defs>

<font id="iconfont" horiz-adv-x="1024" >
  <font-face
    font-family="iconfont"
    font-weight="500"
    font-stretch="normal"
    units-per-em="1024"
    ascent="896"
    descent="-128"
  />
    <missing-glyph />
    
    <glyph glyph-name="laptop-check" unicode="&#59286;" d="M85.312 731.2v-604.8h853.376v604.8H85.312zM682.688 25.6V-64H341.312v89.6H0V832h1024v-806.4h-341.312zM499.2 362.24L708.288 576l59.712-61.12-268.8-274.88L320 423.296l59.712 61.056L499.2 362.24z"  horiz-adv-x="1024" />

    
    <glyph glyph-name="laptop" unicode="&#59287;" d="M85.312 731.2v-604.8h853.376v604.8H85.312zM682.688 25.6V-64H341.312v89.6H0V832h1024v-806.4h-341.312z"  horiz-adv-x="1024" />

    
    <glyph glyph-name="mobile-error" unicode="&#59288;" d="M272 810.688v-853.376h480V810.688h-480zM232 896h560c22.08 0 40-19.072 40-42.688v-938.624c0-23.616-17.92-42.688-40-42.688h-560C209.92-128 192-108.928 192-85.312V853.312C192 876.928 209.92 896 232 896z m40-810.688h480v-170.624h-480v170.624z m240-128c22.08 0 40 19.136 40 42.688 0 23.552-17.92 42.688-40 42.688s-40-19.136-40-42.688c0-23.552 17.92-42.688 40-42.688zM614.336 640l55.744-55.808-251.072-251.072-55.808 55.744L614.4 640z m55.744-251.136l-55.744-55.744-251.136 251.072L419.008 640l251.072-251.136z"  horiz-adv-x="1024" />

    
    <glyph glyph-name="mobile-check" unicode="&#59289;" d="M272 810.688v-853.376h480V810.688h-480zM232 896h560c22.08 0 40-19.072 40-42.688v-938.624c0-23.616-17.92-42.688-40-42.688h-560C209.92-128 192-108.928 192-85.312V853.312C192 876.928 209.92 896 232 896z m40-810.688h480v-170.624h-480v170.624z m240-128c22.08 0 40 19.136 40 42.688 0 23.552-17.92 42.688-40 42.688s-40-19.136-40-42.688c0-23.552 17.92-42.688 40-42.688z m-38.4 455.808L652.8 576l51.2-46.528L473.6 320 320 459.648l51.2 46.528 102.4-93.056z"  horiz-adv-x="1024" />

    
    <glyph glyph-name="mobile-alt" unicode="&#59290;" d="M272 810.688v-853.376h480V810.688h-480zM232 896h560c22.08 0 40-19.072 40-42.688v-938.624c0-23.616-17.92-42.688-40-42.688h-560C209.92-128 192-108.928 192-85.312V853.312C192 876.928 209.92 896 232 896z m40-810.688h480v-170.624h-480v170.624z m240-128c22.08 0 40 19.136 40 42.688 0 23.552-17.92 42.688-40 42.688s-40-19.136-40-42.688c0-23.552 17.92-42.688 40-42.688z"  horiz-adv-x="1024" />

    
    <glyph glyph-name="aliwangwang" unicode="&#59293;" d="M983.167411 559.80842a500.223375 500.223375 0 0 1-267.199666 263.551671A503.74337 503.74337 0 0 1 520.703989 862.272042c-55.551931 0-109.823863-8.703989-161.535798-26.111967C238.464342 891.712005 99.072516 896 59.072566 896 56.19257 896 49.280578 896 46.720582 895.744a47.487941 47.487941 0 0 1-43.199946-65.151918l85.119893-211.071736A489.215388 489.215388 0 0 1 18.752617 367.168661c0-67.199916 13.247983-131.903835 39.48795-192.831759a488.25539 488.25539 0 0 1 107.519866-157.375803 500.223375 500.223375 0 0 1 159.6798-106.047868 503.551371 503.551371 0 0 1 195.199756-38.911951 507.455366 507.455366 0 0 1 195.711756 38.911951 499.007376 499.007376 0 0 1 267.071666 263.615671 488.31939 488.31939 0 0 1-0.128 385.279518z m-87.93589-348.095565a400.767499 400.767499 0 0 0-87.295891-127.99984 399.8715 399.8715 0 0 0-129.407838-86.079892H678.399792a412.031485 412.031485 0 0 0-158.847801-31.615961 410.239487 410.239487 0 0 0-158.591802 31.615961 406.399492 406.399492 0 0 0-216.703729 213.951733v0.127999a394.879506 394.879506 0 0 0-31.93596 156.607805c0 72.31991 19.647975 143.295821 56.703929 205.055743l17.471978 28.863964-12.543984 31.231961-67.967915 168.51179c19.711975-0.831999 47.551941-2.751997 79.103901-7.359991 57.983928-8.447989 109.247863-22.847971 152.191809-42.559947l25.151969-11.647986 26.367967 8.959989a408.31949 408.31949 0 0 0 131.007836 21.119974 409.727488 409.727488 0 0 0 288.12764-117.823853 397.247503 397.247503 0 0 0 87.167891-127.74384l0.128-0.128 0.128-0.128a396.799504 396.799504 0 0 0-0.128-312.959609zM735.359721 577.024399a48.959939 48.959939 0 0 1-49.151939-48.44794v-71.93591c0-26.687967 21.951973-48.447939 49.151939-48.447939 27.135966 0 49.151939 21.759973 49.151938 48.447939V528.576459a48.895939 48.895939 0 0 1-49.151938 48.44794z m-232.12771 0a48.895939 48.895939 0 0 1-49.151939-48.44794v-71.93591c0-26.687967 22.143972-48.447939 49.151939-48.447939 27.199966 0 49.151939 21.759973 49.151939 48.447939V528.576459a48.895939 48.895939 0 0 1-49.151939 48.44794z"  horiz-adv-x="1024" />

    
    <glyph glyph-name="nail" unicode="&#59294;" d="M448 191.936H128V319.872L320 399.36l47.488 368.32H256v128h128V896h256v-0.32h128v-128h-111.488L704 399.488l192-79.552v-128H576V-128H448v319.936z"  horiz-adv-x="1024" />

    
    <glyph glyph-name="nail-fixed" unicode="&#59295;" d="M334.72 283.84L127.36 491.264l85.12 85.184L390.016 504.96l275.968 214.4-72.32 72.32L678.912 876.8l82.944-82.88 0.192 0.128L928 628.16l-0.192-0.256 82.944-82.944-85.12-85.184-72.32 72.256L638.848 256l71.488-177.408-85.12-85.184-207.488 207.36-255.36-255.296-82.944 82.944 255.36 255.36z"  horiz-adv-x="1024" />

    
    <glyph glyph-name="edit1" unicode="&#59296;" d="M652.4 739.3875a112.5 112.5 0 1 0 155.925-161.15625L731.375 501.28125 572.3 660.4125l79.5375 79.5375 0.5625-0.5625zM333.63125 103.59375v-0.1125H174.5v159.1875l358.03125 357.975 159.075-159.13125-357.975-357.91875zM62 46.5h900v-112.5H62v112.5z"  horiz-adv-x="1024" />

    
    <glyph glyph-name="dollar" unicode="&#59297;" d="M449.728 4.224a486.208 486.208 0 0 0-55.872 10.688 311.68 311.68 0 0 0-104.384 46.72 233.472 233.472 0 0 0-71.872 81.28c-17.728 32.896-26.24 71.936-25.6 117.184h161.92c0-24.64 4.608-45.568 13.824-62.72 9.216-17.088 21.44-30.976 36.736-41.6 15.232-10.624 33.152-18.56 53.76-23.68 20.608-5.12 41.92-7.68 63.872-7.68 14.912 0 30.912 1.216 48 3.584 16.96 2.368 32.96 7.04 47.872 13.888 14.912 6.848 27.328 16.256 37.248 28.288 9.92 11.968 14.912 27.2 14.912 45.696 0 19.904-6.592 36.032-19.712 48.384a157.184 157.184 0 0 1-51.648 30.784 529.024 529.024 0 0 1-72.384 21.632 2058.688 2058.688 0 0 0-81.984 20.544 747.136 747.136 0 0 0-83.072 25.216 288.512 288.512 0 0 0-72.384 38.528 183.36 183.36 0 0 0-51.648 59.136c-13.12 23.68-19.712 52.224-19.712 85.824 0 37.76 8.32 70.4 24.96 98.176 16.768 27.776 38.592 50.88 65.536 69.44 27.008 18.496 57.536 32.192 91.584 41.088 16.64 4.352 33.344 7.68 50.048 9.92V896h125.184v-133.12c14.08-1.92 27.84-4.544 41.472-7.68 36.544-8.64 69.056-22.528 97.408-41.664 28.416-19.2 50.944-43.712 67.648-73.536 16.64-29.824 24.96-65.92 24.96-108.48h-161.792c-1.408 21.952-6.208 40.128-14.4 54.528a92.16 92.16 0 0 1-32.448 33.92 140.224 140.224 0 0 1-46.336 17.472 295.04 295.04 0 0 1-56.96 5.12c-13.504 0-27.008-1.344-40.448-4.096-13.504-2.752-25.792-7.552-36.736-14.4a91.072 91.072 0 0 1-27.2-25.728c-7.04-10.24-10.624-23.296-10.624-39.04 0-14.4 2.816-26.048 8.512-34.944 5.696-8.96 16.832-17.152 33.536-24.704 16.64-7.552 39.744-15.04 69.248-22.592 29.44-7.552 67.968-17.152 115.52-28.8 14.208-2.752 33.92-7.68 59.072-14.912 25.216-7.168 50.24-18.688 75.072-34.432 24.832-15.744 46.336-36.864 64.448-63.232 18.112-26.368 27.136-60.16 27.136-101.248 0-33.6-6.72-64.768-20.224-93.568-13.44-28.8-33.536-53.632-60.16-74.56-26.624-20.864-59.648-37.12-99.008-48.832a420.48 420.48 0 0 0-77.696-14.72V-128H449.728v132.224z"  horiz-adv-x="1024" />

    
    <glyph glyph-name="transanction" unicode="&#59298;" d="M145.025 624.4125C223.4375 750.4125 361.75625 834 519.3125 834c225.73125 0 412.03125-171.7875 439.3125-393.75h-83.53125c-26.60625 175.275-175.6125 309.4875-355.5 309.4875-179.8875 0-328.89375-134.2125-355.5-309.4875H62V777.75h83.025v-153.3375zM580.7375 271.5h108.95625v-112.5H580.7375v-56.25H471.78125v56.25H362.9375v112.5h108.9V327.75H362.9375V440.25h108.9L308.43125 665.25h109.0125l108.84375-141.8625L635.91875 665.25h108.225L580.625 440.25h109.06875v-112.5H580.7375v-56.25zM80 327.75h84.15c26.6625-175.1625 175.6125-309.2625 355.44375-309.2625 179.775 0 328.78125 134.1 355.5 309.2625H962v-337.5h-83.025v131.34375C798.65 7.96875 667.475-66 519.3125-66 293.525-66 107.225 105.78750000000002 80 327.75z"  horiz-adv-x="1024" />

    
    <glyph glyph-name="filter-fill" unicode="&#59299;" d="M64 896h896v-289.984L730.752 323.84000000000003v-281.216H286.72V323.84000000000003L64 606.0160000000001V896z m224.64-938.688h449.152V-128H288.576v85.312z"  horiz-adv-x="1024" />

    
    <glyph glyph-name="all-fill" unicode="&#59300;" d="M0 896h469.312v-469.312H0V896z m0-554.688h469.312V-128H0V341.312zM554.688 896H1024v-469.312H554.688V896z m0-554.688H1024V-128H554.688V341.312z"  horiz-adv-x="1024" />

    
    <glyph glyph-name="databaseplus-fill" unicode="&#59301;" d="M763.712 132.288V256h85.376v-123.712H972.8v-85.376h-123.712V-76.8h-85.376v123.712H640v85.376h123.712zM960 317.184H576v-88.96H64V539.776h896v-222.72zM576 183.68V-128H64v311.68h512zM64 896h896v-311.68H64V896z m134.4-133.568v-44.544h89.6v44.544H198.4z m0-356.16v-44.544h89.6v44.544H198.4z m0-356.16v-44.544h89.6v44.544H198.4z"  horiz-adv-x="1024" />

    
    <glyph glyph-name="database-fill" unicode="&#59302;" d="M64 539.84h896v-311.68H64v311.68zM64 896h896v-311.68H64V896z m0-712.32h896V-128H64v311.68z m134.4 578.752v-44.544h89.6v44.544H198.4z m0-356.16v-44.544h89.6v44.544H198.4z m0-356.16v-44.544h89.6v44.544H198.4z"  horiz-adv-x="1024" />

    
    <glyph glyph-name="commentlines-fill" unicode="&#59303;" d="M64 832h896v-709.312H363.648L64-64V832z m224-224v-112h448V608h-448z m0-186.688v-112h448v112h-448z"  horiz-adv-x="1024" />

    
    <glyph glyph-name="commentdots-fill" unicode="&#59304;" d="M64 832h896v-709.312H363.648L64-64V832z m224-298.688v-112h112v112H288z m186.688 0v-112h112v112h-112z m186.624 0v-112h112v112h-112z"  horiz-adv-x="1024" />

    
    <glyph glyph-name="paperplane-fill" unicode="&#59305;" d="M312.128 97.60000000000002L833.28 616.96l-521.344-405.76L0 384l1024 512-120.832-1024-283.968 164.16L312.128-128v225.6z m517.12 514.944l-0.512 0.64 4.544 3.712-4.032-4.352z"  horiz-adv-x="1024" />

    
    <glyph glyph-name="eyeslash-fill" unicode="&#59306;" d="M247.36 649.472L176.704 720.128l46.336 46.4 85.76-85.76C375.296 709.504 447.296 723.84 524.672 723.84c217.216 0 392.128-112.96 524.672-338.752-59.52-103.04-128.32-182.528-206.272-238.528l98.624-98.624-46.4-46.4-109.12 109.184a531.2 531.2 0 0 0-1.024-0.512l-126.272 126.208 0.832 0.768-70.016 69.952a99.968 99.968 0 0 0-0.768-0.64l-140.8 140.736 0.64 0.832-71.552 71.616a202.752 202.752 0 0 1-0.64-0.832L246.336 648.896l0.96 0.576z m451.584-358.848c14.4 28.16 22.464 60.288 22.464 94.4C721.408 497.28 633.344 588.16 524.672 588.16c-35.264 0-68.352-9.6-96.96-26.368l78.528-78.528c6.016 1.28 12.288 1.856 18.688 1.856 54.272 0 98.368-45.44 98.368-101.632 0-5.44-0.448-10.816-1.28-16l76.928-76.928zM191.296 611.2l150.656-150.72a208.64 208.64 0 0 1-14.08-75.52c0-112.256 88.128-203.264 196.8-203.264 28.16 0 54.848 6.08 79.04 17.024l117.888-117.824A551.04 551.04 0 0 0 524.672 46.208c-219.136 0-394.048 112.96-524.672 338.816C56.128 480.64 119.936 556.096 191.232 611.2z m329.216-329.216L426.816 375.68c3.776-51.008 43.904-91.52 93.696-93.696z"  horiz-adv-x="1049" />

    
    <glyph glyph-name="eye-fill" unicode="&#59307;" d="M512 64c-213.888 0-384.512 106.688-512 320 129.408 213.312 300.032 320 512 320 211.968 0 382.592-106.688 512-320-127.488-213.312-298.112-320-512-320z m0 64a256 256 0 1 1 0 512 256 256 0 0 1 0-512z m0 128a128 128 0 1 1 0 256 128 128 0 0 1 0-256z"  horiz-adv-x="1024" />

    
    <glyph glyph-name="lightbulb-fill" unicode="&#59308;" d="M682.688 167.936v-125.248H341.312v125.248a384 384 0 1 0 341.312 0z m-341.376-210.56h341.376V-128H341.312v85.312z"  horiz-adv-x="1024" />

    
    <glyph glyph-name="flag-fill" unicode="&#59309;" d="M153.6 341.312V-128H64V896h358.656l183.488-85.312H960V256H601.344L426.432 341.312H153.6z"  horiz-adv-x="1024" />

    
    <glyph glyph-name="tag-fill" unicode="&#59310;" d="M0 384L25.472 864.64 512 896l512-512-512-512-512 512z m293.376 128.96a85.952 85.952 0 1 1 0 171.904 85.952 85.952 0 0 1 0-171.904z"  horiz-adv-x="1024" />

    
    <glyph glyph-name="position-fill" unicode="&#59311;" d="M512-128c-205.76 241.472-326.272 411.712-361.664 510.72a384 384 0 1 0 723.072-0.832C837.76 283.072 717.312 113.152 512-128.064z m0 512a128 128 0 1 1 0 256 128 128 0 0 1 0-256z"  horiz-adv-x="1024" />

    
    <glyph glyph-name="location-fill" unicode="&#59312;" d="M87.424 426.688a426.816 426.816 0 0 0 381.888 381.888V896h85.376v-87.424a426.816 426.816 0 0 0 381.888-381.888H1024v-85.376h-87.424a426.816 426.816 0 0 0-381.888-381.888V-128H469.312v87.424a426.816 426.816 0 0 0-381.888 381.888H0V426.688h87.424zM512 117.312a266.688 266.688 0 1 1 0 533.376 266.688 266.688 0 0 1 0-533.376z m0 149.376a117.312 117.312 0 1 1 0 234.624 117.312 117.312 0 0 1 0-234.624z"  horiz-adv-x="1024" />

    
    <glyph glyph-name="map-fill" unicode="&#59313;" d="M392.512 664.512l238.976 144.832v-730.432L392.512-64V664.512zM64 832l238.912-142.976v-704.768L64 128.512V832z m657.088 0L960 689.024v-704.768l-238.912 144.256V832z"  horiz-adv-x="1024" />

    
    <glyph glyph-name="inboxin-fill" unicode="&#59314;" d="M960 570.688H64v0.384L213.312 832h597.376L960 571.264v-0.64z m0-74.688V-64H64V496h896z m-608-256l160-160 160 160h-320z m200 0v192h-80v-192h80z"  horiz-adv-x="1024" />

    
    <glyph glyph-name="box-fill" unicode="&#59315;" d="M960 570.688H64v0.384L213.312 832h597.376L960 571.264v-0.64z m0-74.688V-64H64V496h896zM325.312 384v-74.688h373.376V384H325.312z"  horiz-adv-x="1024" />

    
    <glyph glyph-name="databaseset-fill" unicode="&#59316;" d="M0 584.064l469.632-222.272V-128L0 95.04V584.064zM512.832 896l509.632-223.04L513.28 434.304 0 673.984 512.832 896zM1024 584.064v-489.024L555.2-126.72V361.792L1024 584.064z"  horiz-adv-x="1024" />

    
    <glyph glyph-name="layergroup-fill" unicode="&#59317;" d="M947.648 435.456L1024 384l-512-345.088L0 384l76.352 51.456L512 141.888l435.648 293.568zM59.52 264.96L512-32l452.48 296.96 59.52-40.96L512-128l-512 352 59.52 40.96zM512 896l512-345.088-512-345.024-512 345.024L512 896z"  horiz-adv-x="1024" />

    
    <glyph glyph-name="cry-fill" unicode="&#59318;" d="M511.488 896C794.624 896 1024 666.624 1024 384s-229.376-512-512.512-512C228.864-128 0 101.376 0 384s228.864 512 511.488 512zM691.2 435.2a76.8 76.8 0 1 1 0 153.6 76.8 76.8 0 0 1 0-153.6z m-358.4 0a76.8 76.8 0 1 1 0 153.6 76.8 76.8 0 0 1 0-153.6zM512 204.8c75.776 0 140.8-41.472 176.64-102.4h85.504a281.344 281.344 0 0 1-524.288 0H335.36c35.84 60.928 100.864 102.4 176.64 102.4z"  horiz-adv-x="1024" />

    
    <glyph glyph-name="smile-fill" unicode="&#59319;" d="M511.488 896C794.624 896 1024 666.624 1024 384s-229.376-512-512.512-512C228.864-128 0 101.376 0 384s228.864 512 511.488 512zM691.2 435.2a76.8 76.8 0 1 1 0 153.6 76.8 76.8 0 0 1 0-153.6z m-358.4 0a76.8 76.8 0 1 1 0 153.6 76.8 76.8 0 0 1 0-153.6z m179.2-256c-75.776 0-140.8 41.472-176.64 102.4H249.856a281.344 281.344 0 0 1 524.288 0H688.64c-35.84-60.928-100.864-102.4-176.64-102.4z"  horiz-adv-x="1024" />

    
    <glyph glyph-name="unlock-fill" unicode="&#59320;" d="M467.2 182.08000000000004v-115.968a44.8 44.8 0 0 1 89.6 0v115.968c26.752 14.72 44.8 42.304 44.8 73.92 0 47.104-40.128 85.312-89.6 85.312-49.472 0-89.6-38.208-89.6-85.312 0-31.616 18.048-59.136 44.8-73.92zM243.2 512h448V640c0 94.272-80.256 170.688-179.2 170.688-98.944 0-179.2-76.416-179.2-170.688H243.2c0 141.44 120.32 256 268.8 256 148.48 0 268.8-114.56 268.8-256v-128H960v-640H64V512h179.2z"  horiz-adv-x="1024" />

    
    <glyph glyph-name="lock-fill" unicode="&#59321;" d="M467.2 182.08000000000004v-115.968a44.8 44.8 0 0 1 89.6 0v115.968c26.752 14.72 44.8 42.304 44.8 73.92 0 47.104-40.128 85.312-89.6 85.312-49.472 0-89.6-38.208-89.6-85.312 0-31.616 18.048-59.136 44.8-73.92zM64 512h896v-640H64V512z m268.8 0h358.4V640c0 94.272-80.256 170.688-179.2 170.688-98.944 0-179.2-76.416-179.2-170.688v-128zM512 896c148.48 0 268.8-114.56 268.8-256v-128H243.2V640c0 141.44 120.32 256 268.8 256z"  horiz-adv-x="1024" />

    
    <glyph glyph-name="alignright-fill" unicode="&#59322;" d="M938.688-128V896H1024v-1024h-85.312zM0 128h853.312v-256H0v256zM0 896h853.312v-256H0V896z m170.688-384h682.624v-256H170.688V512z"  horiz-adv-x="1024" />

    
    <glyph glyph-name="alignleft-fill" unicode="&#59323;" d="M85.312 896v-1024H0V896h85.312zM1024 640H170.688V896H1024v-256z m0-768H170.688v256H1024v-256z m-170.688 384H170.688V512h682.624v-256z"  horiz-adv-x="1024" />

    
    <glyph glyph-name="borderbottom-fill" unicode="&#59324;" d="M0-42.688h1024V-128H0v85.312zM256 896v-853.312H0V896h256z m768 0v-853.312h-256V896h256z m-384-170.688v-682.624H384V725.312h256z"  horiz-adv-x="1024" />

    
    <glyph glyph-name="bordertop-fill" unicode="&#59325;" d="M1024 810.688H0V896h1024v-85.312zM768-128V725.312h256V-128h-256zM0-128V725.312h256V-128H0z m384 170.688V725.312h256v-682.624H384z"  horiz-adv-x="1024" />

    
    <glyph glyph-name="aligncenter-fill" unicode="&#59326;" d="M460.16-128V896h103.68v-1024H460.16zM64 318.848h896v-296.32H64v296.32z m89.6 426.688h716.8v-296.32H153.6v296.32z"  horiz-adv-x="1024" />

    
    <glyph glyph-name="borderverticle-fill" unicode="&#59327;" d="M0 435.84h1024v-103.68H0V435.84zM446.848 832v-896h-296.32V832h296.32z m426.688-89.6v-716.8h-296.32V742.4h296.32z"  horiz-adv-x="1024" />

    
    <glyph glyph-name="piccenter-fill" unicode="&#59328;" d="M0 896h1024v-93.12H0V896z m0-930.88h1024V-128H0v93.12zM128 709.76h768v-279.296H128V709.824z m0-372.352h768v-279.296H128V337.472z"  horiz-adv-x="1024" />

    
    <glyph glyph-name="picside-fill" unicode="&#59329;" d="M1024 896v-1024h-93.12V896H1024zM93.12 896v-1024H0V896h93.12zM837.76 768v-768H558.528V768h279.296zM465.472 768v-768H186.176V768h279.296z"  horiz-adv-x="1024" />

    
    <glyph glyph-name="folderopen-fill" unicode="&#59330;" d="M0 832h404.288L511.36 697.6H1024V-64H0V832z m82.432-191.552v-89.792h282.88l106.56-134.976h471.168V506.24H512.64L404.224 640.448H82.432z"  horiz-adv-x="1024" />

    
    <glyph glyph-name="folderplus-fill" unicode="&#59331;" d="M640 320H512v-85.312h128v-128h85.312v128h128V320h-128V448H640v-128zM0 832h404.288L511.36 697.6H1024V-64H0V832z"  horiz-adv-x="1024" />

    
    <glyph glyph-name="folder-fill" unicode="&#59332;" d="M0 832h404.288L511.36 697.6H1024V-64H0z"  horiz-adv-x="1024" />

    
    <glyph glyph-name="file-SQL" unicode="&#59333;" d="M128 512h384V896h384v-1024H128V512z m1.408 85.312L426.688 895.744v-298.432H129.408z m119.488-472.704c1.6-18.496 8.384-33.728 20.416-45.76 11.968-11.968 33.536-17.92 64.704-17.92 17.792 0 32.512 2.56 44.16 7.68a60.992 60.992 0 0 1 27.264 22.528 58.112 58.112 0 0 1 9.728 32.512 51.52 51.52 0 0 1-7.296 27.072 55.936 55.936 0 0 1-23.424 20.352c-10.688 5.44-28.416 10.88-53.12 16.192-10.048 2.048-16.384 4.288-19.008 6.72-2.752 2.368-4.16 4.992-4.16 7.872a12.8 12.8 0 0 0 4.992 10.24c3.328 2.752 8.32 4.16 14.912 4.16 8 0 14.272-1.92 18.816-5.632 4.48-3.776 7.488-9.728 8.96-17.984l53.312 3.136c-2.304 18.944-9.6 32.832-21.952 41.536-12.288 8.704-30.08 13.056-53.504 13.056-19.136 0-34.112-2.368-45.12-7.168a54.336 54.336 0 0 1-24.576-19.776 48 48 0 0 1-8.192-26.688 44.8 44.8 0 0 1 16-35.392c10.56-9.216 28.288-16.64 53.12-22.208 15.168-3.328 24.832-6.912 28.992-10.624a16.832 16.832 0 0 0 6.272-12.8 17.024 17.024 0 0 0-6.592-13.12 27.712 27.712 0 0 0-18.688-5.76c-10.88 0-19.2 3.776-24.96 11.2A41.088 41.088 0 0 0 302.72 128l-53.888-3.392z m391.36 122.624V64h145.024v45.12h-88.32v138.112h-56.704z m-42.176-156.48c13.376 16.256 20.032 37.888 20.032 65.024 0 30.4-8.32 53.76-24.832 70.08-16.512 16.384-40 24.512-70.4 24.512-29.888 0-53.12-8.32-69.76-25.024-16.64-16.768-24.896-40.192-24.896-70.4 0-31.04 9.472-55.168 28.48-72.32 16.128-14.528 38.08-21.76 65.92-21.76 18.816 0 34.496 2.688 46.976 8.128 3.072-2.688 8.512-6.656 16.256-11.904 7.744-5.312 15.552-9.856 23.488-13.696l15.744 31.744a152.832 152.832 0 0 0-13.12 6.4 264.768 264.768 0 0 0-13.888 9.216z m-43.328 28.992c4.48 8.064 6.72 20.16 6.72 36.224 0 18.56-3.456 31.744-10.304 39.68a35.712 35.712 0 0 1-28.416 11.84 34.496 34.496 0 0 1-27.392-12.16c-7.04-8.064-10.496-20.672-10.496-37.824 0-20.032 3.392-34.048 10.24-42.112 6.848-8.128 16.192-12.16 28.16-12.16 3.84 0 7.424 0.384 10.88 1.152a70.08 70.08 0 0 1-22.528 12.992l8.832 20.352a48.128 48.128 0 0 0 11.712-3.328c2.816-1.344 8.256-4.864 16.32-10.496 1.92-1.344 3.968-2.752 6.272-4.16z"  horiz-adv-x="1024" />

    
    <glyph glyph-name="fileplus-fill" unicode="&#59334;" d="M750.912 128v123.712h85.376V128H960v-85.312h-123.712v-123.776h-85.376v123.776H627.2V128h123.712z m-46.848-256H128V595.968v-82.88h374.4V896h374.4v-576h-172.736v-128H564.8v-210.88h139.264V-128zM128.32 596.288L419.2 895.808v-299.52H128.32z"  horiz-adv-x="1024" />

    
    <glyph glyph-name="file-fill" unicode="&#59335;" d="M128 512h384V896h384v-1024H128V512z m1.408 85.312L426.688 895.744v-298.432H129.408z"  horiz-adv-x="1024" />

    
    <glyph glyph-name="copy-fill" unicode="&#59336;" d="M829.568 842.88H960V-128H194.432v128H64V613.568L361.92 896h467.648v-53.12z m0-80.896V0H279.488v-47.104h595.456V761.984h-45.44z"  horiz-adv-x="1024" />

    
    <glyph glyph-name="headset-fill" unicode="&#59337;" d="M862.464 72.064a167.872 167.872 0 0 0-51.84-8.064h-149.312V414.336h199.104V501.888c0 169.472-155.776 306.56-348.416 306.56S163.584 671.36 163.584 501.888v-87.552h199.04V64H213.376C130.752 64 64 122.688 64 195.392v306.56C64 719.488 264.576 896 512 896s448-176.448 448-394.112V0a128 128 0 0 0-128-128H477.568v86.72h320.896a64 64 0 0 1 64 64v49.344z"  horiz-adv-x="1024" />

    
    <glyph glyph-name="phone-fill" unicode="&#59338;" d="M626.24 122.368l37.888 71.168a64 64 0 0 0 72 32l174.72-43.52a64 64 0 0 0 48.512-62.08v-71.936H960V-64C465.152-64 64 337.152 64 832h112v-0.256h70.4a64 64 0 0 0 62.08-48.512l43.52-174.72A64 64 0 0 0 320 536.512L249.92 499.2a787.136 787.136 0 0 1 376.32-376.832z"  horiz-adv-x="1024" />

    
    <glyph glyph-name="pausecircle-fill" unicode="&#59339;" d="M512-128A512 512 0 1 0 512 896a512 512 0 0 0 0-1024zM320 576v-384h128V576H320z m256 0v-384h128V576H576z"  horiz-adv-x="1024" />

    
    <glyph glyph-name="stopcircle-fill" unicode="&#59340;" d="M512-128A512 512 0 1 0 512 896a512 512 0 0 0 0-1024zM320 576v-384h384V576H320z"  horiz-adv-x="1024" />

    
    <glyph glyph-name="playcircle-fill" unicode="&#59341;" d="M512-128A512 512 0 1 0 512 896a512 512 0 0 0 0-1024zM383.232 608.384v-448l384 223.104-384 224.896z"  horiz-adv-x="1024" />

    
    <glyph glyph-name="delete-fill" unicode="&#59342;" d="M341.312 810.688l64 85.312h213.376l64-85.312H960v-85.376H64V810.688h277.312zM170.688 640h682.624v-768H170.688V640z m298.624-170.688H384v-426.624h85.312V469.312z m170.688 0H554.688v-426.624H640V469.312z"  horiz-adv-x="1024" />

    
    <glyph glyph-name="picture-fill" unicode="&#59343;" d="M0 832h1022.976v-896H0V832z m80-809.536h863.488l-216.576 280.32-140.8-85.824-196.096 234.496-310.016-428.992z m617.984 463.296a85.12 85.12 0 1 1 0.064 170.368 85.12 85.12 0 0 1-0.064-170.368z"  horiz-adv-x="1024" />

    
    <glyph glyph-name="mail-fill" unicode="&#59344;" d="M513.92 358.784L99.968 617.408v-96.96L513.92 258.55999999999995v0.32l412.48 265.664V618.88L513.92 358.784zM0 768h1024v-768H0V768z"  horiz-adv-x="1024" />

    
    <glyph glyph-name="heart-fill" unicode="&#59345;" d="M760.384 832c47.808 0 91.968-11.968 132.352-35.84a264.32 264.32 0 0 0 95.872-97.152A263.68 263.68 0 0 0 1024 565.12c0-34.752-6.592-68.544-19.712-101.312a262.4 262.4 0 0 0-57.536-87.424L512-64 77.248 376.32A268.8 268.8 0 0 0 0 565.12c0 48.384 11.776 93.056 35.392 133.952A264.32 264.32 0 0 0 131.2 796.16 255.296 255.296 0 0 0 263.68 832 260.736 260.736 0 0 0 449.92 753.792l62.08-62.912 62.144 62.912a258.944 258.944 0 0 0 86.336 58.24A259.584 259.584 0 0 0 760.512 832h-0.128z"  horiz-adv-x="1024" />

    
    <glyph glyph-name="collection-fill" unicode="&#59346;" d="M512 73.024L828.416-128l-83.968 378.88L1024 505.792l-368.128 32.896L512 896 368.128 538.688 0 505.792l279.552-254.912L195.584-128z"  horiz-adv-x="1024" />

    
    <glyph glyph-name="user-group-fill" unicode="&#59347;" d="M409.6 768c113.152 0 204.8-93.056 204.8-208S522.752 352 409.6 352c-113.152 0-204.8 93.056-204.8 208S296.448 768 409.6 768z m0-475.456c136.704 0 409.6-68.224 409.6-203.712V-64H0v152.832C0 224.32 272.896 292.48 409.6 292.48zM887.488-64v168c0 115.456-133.12 197.248-276.288 214.464 24.832 3.008 74.368 0 94.592 0 136.704 0 318.208-78.976 318.208-214.464V-64h-136.512zM576 363.84a207.808 207.808 0 0 1 136.512 196.16c0 90.624-56.96 167.68-136.512 196.16 21.376 7.68 44.352 11.84 68.288 11.84 113.152 0 204.8-93.056 204.8-208s-91.648-208-204.8-208c-23.936 0-46.912 4.16-68.288 11.84z"  horiz-adv-x="1024" />

    
    <glyph glyph-name="userplus-fill" unicode="&#59348;" d="M592.64 314.432A255.296 255.296 0 0 1 512 128a255.36 255.36 0 0 1 86.656-192H64v164.544C64 246.464 362.496 320 512 320c23.68 0 51.2-1.856 80.64-5.568zM512 832c123.776 0 224-100.224 224-224S635.776 384 512 384a223.936 223.936 0 0 0-224 224C288 731.776 388.224 832 512 832z m320-512v-128h128v-128h-128v-128h-128v128H576v128h128V320h128z"  horiz-adv-x="1024" />

    
    <glyph glyph-name="user-fill" unicode="&#59349;" d="M512 384c123.776 0 224 100.224 224 224S635.776 832 512 832a223.936 223.936 0 0 1-224-224C288 484.224 388.224 384 512 384z m0-64c-149.504 0-448-85.76-448-256v-128h896v128c0 170.24-298.496 256-448 256z"  horiz-adv-x="1024" />

    
    <glyph glyph-name="cog-fill" unicode="&#59350;" d="M903.232 333.82399999999996l119.232-94.912-127.168-209.728-143.168 50.176a407.296 407.296 0 0 0-88.96-50.176L633.92-128H394.688l-33.664 157.184a387.328 387.328 0 0 0-88.96 50.176l-144-50.176-127.872 209.728L120.96 333.82399999999996A395.136 395.136 0 0 0 117.312 384c0 16.896 1.6 33.792 3.712 50.176L0.192 536.832l116.032 204.544 155.84-52.736a407.296 407.296 0 0 0 88.96 50.176L396.352 896h237.568l29.248-157.184c32.128-12.8 61.568-29.696 88.96-50.176l158.08 52.736 113.664-204.544-120.64-102.656c2.048-16.384 3.648-32.768 3.648-50.176 0-11.584-1.28-28.352-3.648-50.176zM512 576a192 192 0 1 1 0-384 192 192 0 1 1 0 384z"  horiz-adv-x="1024" />

    
    <glyph glyph-name="clock-fill" unicode="&#59351;" d="M533.312 339.584V676.48H438.848v-392.32h1.472l243.84-140.8 47.296 81.728-198.144 114.432zM511.488 896C794.624 896 1024 666.624 1024 384s-229.376-512-512.512-512C228.864-128 0 101.376 0 384s228.864 512 511.488 512z"  horiz-adv-x="1024" />

    
    <glyph glyph-name="calendaralt-fill" unicode="&#59352;" d="M929.28 793.472H1024V-128H0V793.472h94.72l4.864 0.128h113.728V896H312.96v-102.4h398.208V896h99.584v-102.4h113.728c1.664 0 3.2 0 4.864-0.128zM924.416 588.8V691.2H99.584v-102.4h824.832zM192 384v-128h128V384H192z m256 0v-128h128V384H448z m256 0v-128h128V384h-128z m-512-192v-128h128v128H192z m256 0v-128h128v128H448z m256 0v-128h128v128h-128z"  horiz-adv-x="1024" />

    
    <glyph glyph-name="clouddownload-fill" unicode="&#59353;" d="M1024 255.808C1024 113.088 919.872 0 787.648 0h-512C123.904 0 0 134.4 0 298.496 0 444.032 94.656 564.48 226.432 593.024 284.16 700.544 391.808 768 512 768c152.32 0 282.112-108.416 323.392-261.12C941.888 482.56 1024 376.96 1024 255.808zM341.312 325.824L512 139.52l170.688 186.24H341.312z m213.376 0v256H469.312v-256h85.376z"  horiz-adv-x="1024" />

    
    <glyph glyph-name="cloudupload-fill" unicode="&#59354;" d="M1024 255.808C1024 113.088 919.872 0 787.648 0h-512C123.904 0 0 134.4 0 298.496 0 444.032 94.656 564.48 226.432 593.024 284.16 700.544 391.808 768 512 768c152.32 0 282.112-108.416 323.392-261.12C941.888 482.56 1024 376.96 1024 255.808z m-341.312 139.84L512 581.76 341.312 395.52h341.376z m-213.376 0v-256h85.376v256H469.312z"  horiz-adv-x="1024" />

    
    <glyph glyph-name="exchange-fill" unicode="&#59355;" d="M512-128A512 512 0 1 0 512 896a512 512 0 0 0 0-1024zM387.392 489.728v-404.48H472.96v512h-0.448l-0.064 85.44-259.2-240.64 58.496-58.432 115.584 106.112z m254.208-212.288v405.12H555.904v-498.944h0.064l0.512-98.496 253.12 233.856-52.928 63.36-115.072-104.896z"  horiz-adv-x="1024" />

    
    <glyph glyph-name="info-circle-fill" unicode="&#59356;" d="M512-128A512 512 0 1 0 512 896a512 512 0 0 0 0-1024zM448 448v-384h128V448H448z m0 256v-128h128V704H448z"  horiz-adv-x="1024" />

    
    <glyph glyph-name="question-circle-fill" unicode="&#59357;" d="M512-128A512 512 0 1 0 512 896a512 512 0 0 0 0-1024z m-63.168 320.128V64h130.624v128.128H448.832zM311.04 479.424h122.304c0 14.976 1.664 28.992 4.992 41.984a101.12 101.12 0 0 0 15.36 34.112c7.04 9.728 15.872 17.472 26.688 23.296 10.816 5.824 23.68 8.768 38.656 8.768 22.208 0 39.552-6.08 52.032-18.304 12.48-12.16 18.688-31.04 18.688-56.576 0.576-14.976-2.048-27.52-7.872-37.44-5.824-9.984-13.44-19.2-22.912-27.52-9.408-8.32-19.648-16.64-30.72-24.96-11.136-8.32-21.696-18.112-31.68-29.44a171.904 171.904 0 0 1-26.24-41.216c-7.424-16.064-12.032-36.032-13.696-59.904v-37.44H568.96v31.616c2.24 16.64 7.68 30.528 16.256 41.6 8.576 11.072 18.432 20.928 29.504 29.504 11.136 8.64 22.912 17.216 35.392 25.792a162.048 162.048 0 0 1 59.904 75.264c6.912 17.28 10.368 39.168 10.368 65.792a149.312 149.312 0 0 1-44.928 104c-16.064 16.064-37.248 29.504-63.616 40.32-26.368 10.88-59.2 16.256-98.56 16.256-30.528 0-58.112-5.12-82.816-15.36a183.68 183.68 0 0 1-63.232-42.88A195.392 195.392 0 0 1 326.4 561.792c-9.728-24.96-14.848-52.48-15.36-82.368z"  horiz-adv-x="1024" />

    
    <glyph glyph-name="exclamationcircle-f" unicode="&#59358;" d="M512-128A512 512 0 1 0 512 896a512 512 0 0 0 0-1024zM448 704v-384h128V704H448z m0-512v-128h128v128H448z"  horiz-adv-x="1024" />

    
    <glyph glyph-name="minus-circle-fill" unicode="&#59359;" d="M512-128A512 512 0 1 0 512 896a512 512 0 0 0 0-1024zM192 448v-128h640V448H192z"  horiz-adv-x="1024" />

    
    <glyph glyph-name="plus-circle-fill" unicode="&#59360;" d="M448 448H192v-128h256v-256h128V320h256V448H576V704H448v-256z m64-576A512 512 0 1 0 512 896a512 512 0 0 0 0-1024z"  horiz-adv-x="1024" />

    
    <glyph glyph-name="times-circle-fill" unicode="&#59361;" d="M595.392 391.04l158.4 158.464L663.296 640 504.896 481.6 346.496 640 256 549.504 414.4 391.04 256 232.704l90.496-90.496L504.96 300.608l158.4-158.4 90.496 90.496-158.4 158.4zM512-128A512 512 0 1 0 512 896a512 512 0 0 0 0-1024z"  horiz-adv-x="1024" />

    
    <glyph glyph-name="check-circle-fill" unicode="&#59362;" d="M512-128A512 512 0 1 0 512 896a512 512 0 0 0 0-1024zM448 290.88L277.312 453.824 192 372.352 448 128l384 366.528L746.688 576 448 290.88z"  horiz-adv-x="1024" />

    
    <glyph glyph-name="compressalt-fill" unicode="&#59363;" d="M383.424 175.68L512 48.192V384H173.44l129.92-128.896L128 79.744 207.744 0l175.68 175.68z m257.472 416.96L512 722.56V384h335.808l-127.488 128.576L896 688.256 816.256 768l-175.36-175.36zM64 832h896v-896H64V832z"  horiz-adv-x="1024" />

    
    <glyph glyph-name="expandalt-fill" unicode="&#59364;" d="M767.424 559.68L896 432.192V768H557.44l129.92-128.896L512 463.744 591.744 384l175.68 175.68zM256.896 208.64L128 338.56V0h335.808l-127.488 128.576L512 304.256 432.256 384l-175.36-175.36zM64 832h896v-896H64V832z"  horiz-adv-x="1024" />

    
    <glyph glyph-name="filter1" unicode="&#59365;" d="M149.568 634.432l212.16-282.112V128h251.712V352.96l218.304 282.112V810.688H149.504v-176.256zM64 896h853.312v-289.984L699.008 323.84v-281.216H276.16V323.84L64 606.016V896z m213.888-938.688h427.776V-128H277.888v85.312z"  horiz-adv-x="1024" />

    
    <glyph glyph-name="all" unicode="&#59366;" d="M85.312 810.688V512H384V810.688H85.312zM0 896h469.312v-469.312H0V896z m0-554.688h469.312V-128H0V341.312zM85.312 256v-298.688H384V256H85.312zM554.688 896H1024v-469.312H554.688V896zM640 810.688V512h298.688V810.688H640zM554.688 341.312H1024V-128H554.688V341.312zM640 256v-298.688h298.688V256H640z"  horiz-adv-x="1024" />

    
    <glyph glyph-name="database-plus" unicode="&#59367;" d="M153.6 450.752v-133.504h716.8V450.752H153.6zM576-38.976V-128H64v311.68h512v-89.088H153.6v-133.568H576z m384 356.16H576v-88.96H64V539.776h896v-222.72zM64 896h896v-311.68H64V896z m89.6-89.024v-133.568h716.8V806.976H153.6z m44.8-44.544h89.6v-44.544H198.4v44.544z m0-356.16h89.6v-44.544H198.4v44.544z m565.312-273.984V256h85.376v-123.712H972.8v-85.376h-123.712V-76.8h-85.376v123.712H640v85.376h123.712zM198.4 50.112h89.6v-44.544H198.4v44.544z"  horiz-adv-x="1024" />

    
    <glyph glyph-name="database" unicode="&#59368;" d="M153.6 450.752v-133.504h716.8V450.752H153.6zM64 539.84h896v-311.68H64v311.68zM64 896h896v-311.68H64V896z m89.6-89.024v-133.568h716.8V806.976H153.6zM64 183.616h896V-128H64v311.68z m89.6-88.96v-133.632h716.8v133.568H153.6z m44.8 667.776h89.6v-44.544H198.4v44.544z m0-356.16h89.6v-44.544H198.4v44.544z m0-356.16h89.6v-44.544H198.4v44.544z"  horiz-adv-x="1024" />

    
    <glyph glyph-name="comment-lines" unicode="&#59369;" d="M64 832h896v-709.312H363.648L64-64V832z m278.336-634.688h542.976v560H138.688v-686.848l203.648 126.848zM288 608h448v-112h-448V608z m0-186.688h448v-112h-448v112z"  horiz-adv-x="1024" />

    
    <glyph glyph-name="comment-dots" unicode="&#59370;" d="M64 832h896v-709.312H363.648L64-64V832z m278.336-634.688h542.976v560H138.688v-686.848l203.648 126.848zM288 533.312h112v-112H288v112z m186.688 0h112v-112h-112v112z m186.624 0h112v-112h-112v112z"  horiz-adv-x="1024" />

    
    <glyph glyph-name="paper-plane" unicode="&#59371;" d="M397.632 261.504L833.28 616.96l-435.584-468.8v-133.248L620.8 134.08000000000004l212.608-122.88 87.04 737.28L183.68 380.15999999999997l213.952-118.592 431.104 351.616 0.512-0.576-346.88-373.312 350.912 377.6-435.648-355.328zM1024 896l-120.832-1024-283.968 164.16L312.128-128v339.008L0 384l1024 512z"  horiz-adv-x="1024" />

    
    <glyph glyph-name="eye-slash" unicode="&#59372;" d="M246.4 637.696l-83.84 83.84 46.464 46.4L309.12 667.712A543.04 543.04 0 0 0 512 705.28c211.968 0 382.592-107.136 512-321.28-58.688-98.56-126.464-174.464-203.456-227.648l109.888-109.888-46.4-46.4-121.408 121.408a517.504 517.504 0 0 0-1.088-0.576l-68.224 68.224 1.216 0.512-117.312 117.312-0.896-0.832L435.2 447.168l0.768 0.96L313.6 570.624a435.968 435.968 0 0 1-1.152-0.576L245.376 637.056l1.088 0.64z m509.248-416.448c60.8 37.76 115.456 91.712 164.48 162.432-108.736 155.136-242.88 229.76-408.128 229.76-46.08 0-89.728-5.76-131.072-17.472l112.32-112.32c6.144 1.28 12.48 1.92 19.008 1.92 54.272 0 98.368-45.696 98.368-102.016 0-5.44-0.448-10.816-1.28-16l146.304-146.304z m-566.4 379.2L253.44 536.192c-54.592-37.12-104.32-87.808-149.632-152.512 107.2-154.688 241.28-229.12 408.128-229.12 38.72 0 75.712 3.968 111.04 12.096l73.6-73.6A553.984 553.984 0 0 0 512 62.72c-213.888 0-384.512 107.136-512 321.28 55.488 91.84 118.592 163.968 189.248 216.448zM508.032 281.6L414.144 375.552c3.84-51.2 44.096-91.776 93.888-93.952z"  horiz-adv-x="1024" />

    
    <glyph glyph-name="eye" unicode="&#59373;" d="M512 612.544c-165.248 0-299.392-74.304-408.128-228.864 107.2-154.112 241.28-228.224 408.128-228.224 166.848 0 300.928 74.112 408.128 228.224C811.392 538.24 677.248 612.48 512 612.48zM512 64c-213.888 0-384.512 106.688-512 320 129.408 213.312 300.032 320 512 320 211.968 0 382.592-106.688 512-320-127.488-213.312-298.112-320-512-320z m0 137.152a182.848 182.848 0 1 1 0 365.696 182.848 182.848 0 0 1 0-365.696zM512 320a64 64 0 1 0 0 128 64 64 0 0 0 0-128z"  horiz-adv-x="1024" />

    
    <glyph glyph-name="lightbulb" unicode="&#59374;" d="M426.688 225.728V128h170.624v97.728A298.816 298.816 0 0 1 512 810.688a298.688 298.688 0 0 1-85.312-584.96z m256-57.792v-125.248H341.312v125.248a384 384 0 1 0 341.312 0z m-341.376-210.56h341.376V-128H341.312v85.312z"  horiz-adv-x="1024" />

    
    <glyph glyph-name="flag" unicode="&#59375;" d="M153.6 810.688v-384H448l174.912-85.376H870.4v384H585.408L401.984 810.688H153.6z m0-469.376V-128H64V896h358.656l183.488-85.312H960V256H601.344L426.432 341.312H153.6z"  horiz-adv-x="1024" />

    
    <glyph glyph-name="tag" unicode="&#59376;" d="M512-14.208L910.208 384 480.832 813.376l-378.816-24.448-19.776-373.376L512-14.208zM0 384L25.472 864.64 512 896l512-512-512-512-512 512z m293.376 128.96a85.952 85.952 0 1 1 0 171.904 85.952 85.952 0 0 1 0-171.904z"  horiz-adv-x="1024" />

    
    <glyph glyph-name="position" unicode="&#59377;" d="M793.088 410.752a298.688 298.688 0 1 1-562.432 0.64C257.92 335.36 352.448 197.504 512 4.672c159.232 192.64 253.76 330.176 281.088 406.08zM512-128c-205.76 241.472-326.272 411.712-361.664 510.72a384 384 0 1 0 723.072-0.832C837.76 283.072 717.312 113.152 512-128.064z m0 512a128 128 0 1 1 0 256 128 128 0 0 1 0-256z"  horiz-adv-x="1024" />

    
    <glyph glyph-name="location" unicode="&#59378;" d="M87.424 426.688a426.816 426.816 0 0 0 381.888 381.888V896h85.376v-87.424a426.816 426.816 0 0 0 381.888-381.888H1024v-85.376h-87.424a426.816 426.816 0 0 0-381.888-381.888V-128H469.312v87.424a426.816 426.816 0 0 0-381.888 381.888H0V426.688h87.424z m424.576-384A341.312 341.312 0 1 1 512 725.312a341.312 341.312 0 0 1 0-682.624z m0 170.624a170.688 170.688 0 1 1 0 341.376 170.688 170.688 0 0 1 0-341.376z"  horiz-adv-x="1024" />

    
    <glyph glyph-name="map1" unicode="&#59379;" d="M138.688 133.888l186.624-83.008V634.112L138.688 717.12v-583.232z m524.736-66.048L400-63.168V-64l-0.896 0.384-0.832-0.384-72.96 32.896v0.32L64 85.312V832l296.64-131.84L624 830.72V832l1.28-0.64 0.832 0.448 41.6-19.2L960 682.624V-64l-296.576 131.84zM624 747.392l-224-111.04v-616.128l224 111.36V747.392z m74.688-613.504l186.624-83.008V634.112l-186.624 83.008v-583.232z"  horiz-adv-x="1024" />

    
    <glyph glyph-name="inbox-in" unicode="&#59380;" d="M138.688 551.168v-540.48h746.624V551.424L767.36 757.312H256.64l-117.952-206.08zM213.312 832h597.376L960 571.264V-64H64V571.072L213.312 832z m258.688-592v192h80v-192H672L512 80l-160 160h120zM64 570.688h896V496H64V570.688z"  horiz-adv-x="1024" />

    
    <glyph glyph-name="box" unicode="&#59381;" d="M138.688 551.168v-540.48h746.624V551.424L767.36 757.312H256.64l-117.952-206.08zM213.312 832h597.376L960 571.264V-64H64V571.072L213.312 832zM64 570.688h896V496H64V570.688zM325.312 384h373.376v-74.688H325.312V384z"  horiz-adv-x="1024" />

    
    <glyph glyph-name="database-set" unicode="&#59382;" d="M0 584.064l469.632-222.272V-128L0 95.04V584.064z m85.44-431.68l298.752-141.888V304.32l-298.752 141.44v-293.376zM512.832 896l509.632-223.04L513.28 434.304 0 673.984 512.832 896z m-0.128-96.576L215.68 670.912l297.472-138.88 294.784 138.112-295.296 129.28zM1024 584.064v-489.024L555.2-126.72V361.792L1024 584.064z m-383.36-279.68v-292.8l297.92 140.928v293.12L640.64 304.448z"  horiz-adv-x="1024" />

    
    <glyph glyph-name="layer-group" unicode="&#59383;" d="M199.296 416.64L151.04 384 512 140.672 873.024 384l-48.32 32.64L512 205.824 199.296 416.576z m700.864 50.816l46.08-31.104L1024 384l-123.84-83.456L1024 217.088 512-128l-512 345.088 123.84 83.456L0 384l79.104 53.312 44.736 30.144L0 550.912 512 896l512-345.088-123.84-83.456z m-75.52-217.792L512 38.912l-312.704 210.752-48.32-32.64L512-26.24l361.024 243.328-48.32 32.576zM512 794.304L150.976 550.848 512 307.584l361.024 243.328L512 794.24z"  horiz-adv-x="1024" />

    
    <glyph glyph-name="wind-cry" unicode="&#59384;" d="M512-128A512 512 0 1 0 512 896a512 512 0 0 0 0-1024z m0 85.312A426.688 426.688 0 1 1 512 810.688a426.688 426.688 0 0 1 0-853.376zM691.2 435.2a76.8 76.8 0 1 0 0 153.6 76.8 76.8 0 0 0 0-153.6z m-358.4 0a76.8 76.8 0 1 0 0 153.6 76.8 76.8 0 0 0 0-153.6zM512 204.79999999999995c-75.776 0-140.8-41.472-176.64-102.4H249.856a281.344 281.344 0 0 0 524.288 0H688.64c-35.84 60.928-100.864 102.4-176.64 102.4z"  horiz-adv-x="1024" />

    
    <glyph glyph-name="wind-smile" unicode="&#59385;" d="M512-128A512 512 0 1 0 512 896a512 512 0 0 0 0-1024z m0 85.312A426.688 426.688 0 1 1 512 810.688a426.688 426.688 0 0 1 0-853.376zM691.2 435.2a76.8 76.8 0 1 0 0 153.6 76.8 76.8 0 0 0 0-153.6z m-358.4 0a76.8 76.8 0 1 0 0 153.6 76.8 76.8 0 0 0 0-153.6z m179.2-256c75.776 0 140.8 41.472 176.64 102.4h85.504a281.344 281.344 0 0 0-524.288 0H335.36c35.84-60.928 100.864-102.4 176.64-102.4z"  horiz-adv-x="1024" />

    
    <glyph glyph-name="unlock1" unicode="&#59386;" d="M467.2 182.08000000000004c-26.752 14.72-44.8 42.304-44.8 73.92 0 47.104 40.128 85.312 89.6 85.312 49.472 0 89.6-38.208 89.6-85.312 0-31.616-18.048-59.136-44.8-73.92v-115.968a44.8 44.8 0 0 0-89.6 0v115.968zM243.2 512h448V640c0 94.272-80.256 170.688-179.2 170.688-98.944 0-179.2-76.416-179.2-170.688H243.2c0 141.44 120.32 256 268.8 256 148.48 0 268.8-114.56 268.8-256v-128H960v-640H64V512h179.2zM153.6 426.688v-469.376h716.8V426.688H153.6z"  horiz-adv-x="1024" />

    
    <glyph glyph-name="lock1" unicode="&#59387;" d="M153.6 426.688v-469.376h716.8V426.688H153.6zM64 512h896v-640H64V512z m403.2-329.92c-26.752 14.72-44.8 42.304-44.8 73.92 0 47.104 40.128 85.312 89.6 85.312 49.472 0 89.6-38.208 89.6-85.312 0-31.616-18.048-59.136-44.8-73.92v-115.968a44.8 44.8 0 0 0-89.6 0v115.968zM332.8 512h358.4V640c0 94.272-80.256 170.688-179.2 170.688-98.944 0-179.2-76.416-179.2-170.688v-128zM512 896c148.48 0 268.8-114.56 268.8-256v-128H243.2V640c0 141.44 120.32 256 268.8 256z"  horiz-adv-x="1024" />

    
    <glyph glyph-name="align-right" unicode="&#59388;" d="M938.688-128V896H1024v-1024h-85.312zM0 128h853.312v-256H0v256z m85.312-85.312v-85.376H768v85.376H85.312zM0 896h853.312v-256H0V896z m85.312-85.312v-85.376H768V810.688H85.312zM170.688 512h682.624v-256H170.688V512zM256 426.688v-85.376h512V426.688H256z"  horiz-adv-x="1024" />

    
    <glyph glyph-name="align-left" unicode="&#59389;" d="M85.312 896v-1024H0V896h85.312zM1024 640H170.688V896H1024v-256z m-85.312 85.312V810.688H256v-85.376h682.688zM1024-128H170.688v256H1024v-256z m-85.312 85.312v85.376H256v-85.376h682.688zM853.312 256H170.688V512h682.624v-256zM768 341.312V426.688H256v-85.376h512z"  horiz-adv-x="1024" />

    
    <glyph glyph-name="border-bottom" unicode="&#59390;" d="M0-42.688h1024V-128H0v85.312zM256 896v-853.312H0V896h256zM170.688 810.688H85.312V128h85.376V810.688zM1024 896v-853.312h-256V896h256z m-85.312-85.312h-85.376V128h85.376V810.688zM640 725.312v-682.624H384V725.312h256zM554.688 640H469.312v-512h85.376V640z"  horiz-adv-x="1024" />

    
    <glyph glyph-name="border-top" unicode="&#59391;" d="M1024 810.688H0V896h1024v-85.312zM768-128V725.312h256V-128h-256z m85.312 85.312h85.376V640h-85.376v-682.688zM0-128V725.312h256V-128H0z m85.312 85.312h85.376V640H85.312v-682.688zM384 42.688V725.312h256v-682.624H384zM469.312 128h85.376V640H469.312v-512z"  horiz-adv-x="1024" />

    
    <glyph glyph-name="align-center" unicode="&#59392;" d="M460.16-128V896h103.68v-1024H460.16zM64 318.848h896v-296.32H64v296.32z m89.6-98.816v-98.752h716.8v98.752H153.6z m0 525.44h716.8v-296.32H153.6v296.32z m89.6-98.752v-98.752h537.6V646.72H243.2z"  horiz-adv-x="1024" />

    
    <glyph glyph-name="border-verticle" unicode="&#59393;" d="M0 435.84h1024v-103.68H0V435.84zM446.848 832v-896h-296.32V832h296.32zM348.032 742.4H249.28v-716.8h98.752V742.4z m525.44 0v-716.8h-296.32V742.4h296.32z m-98.752-89.6h-98.752v-537.6h98.752V652.8z"  horiz-adv-x="1024" />

    
    <glyph glyph-name="pic-center" unicode="&#59394;" d="M0 896h1024v-93.12H0V896z m0-930.88h1024V-128H0v93.12zM128 709.76h768v-279.296H128V709.824z m85.312-93.12v-93.056h597.376V616.704H213.312zM128 337.472h768v-279.296H128V337.472z m85.312-93.12v-93.056h597.376v93.056H213.312z"  horiz-adv-x="1024" />

    
    <glyph glyph-name="pic-side" unicode="&#59395;" d="M1024 896v-1024h-93.12V896H1024zM93.12 896v-1024H0V896h93.12zM837.76 768v-768H558.528V768h279.296z m-93.12-85.312h-93.056v-597.376h93.056V682.688zM465.472 768v-768H186.176V768h279.296zM372.352 682.688H279.296v-597.376h93.056V682.688z"  horiz-adv-x="1024" />

    
    <glyph glyph-name="folder-open" unicode="&#59396;" d="M86.592 742.4v-716.8h853.376V608H472.64L365.696 742.4h-279.04zM1.28 832h404.288L512.64 697.6H1025.28V-64H1.28V832z m85.312-281.6v-535.616l853.376 1.28V416H472.64L365.696 550.4h-279.04zM33.28 640h372.352L512.64 505.6H993.28a32 32 0 0 0 32-32v-458.496l-1025.216-16.192 1.152 609.152A32 32 0 0 0 33.28 640z"  horiz-adv-x="1024" />

    
    <glyph glyph-name="folder-plus" unicode="&#59397;" d="M85.312 742.4v-716.8h853.376V608H471.36L364.416 742.4h-279.04zM0 832h404.288L511.36 697.6H1024V-64H0V832z m640-512V448h85.312v-128h128v-85.312h-128v-128H640v128H512V320h128z"  horiz-adv-x="1024" />

    
    <glyph glyph-name="folder" unicode="&#59398;" d="M85.312 742.4v-716.8h853.376V608H471.36L364.416 742.4h-279.04zM0 832h404.288L511.36 697.6H1024V-64H0V832z"  horiz-adv-x="1024" />

    
    <glyph glyph-name="file-SQL1" unicode="&#59399;" d="M128 595.968v1.344h1.408L426.688 895.744V896H896v-1024H128V595.968z m121.856 1.344h176.832V774.848L249.856 597.312zM213.376 512v-554.688h597.312V810.688H512V512H213.312z m35.52-387.392L302.784 128c1.152-8.768 3.52-15.36 7.104-20.032a29.952 29.952 0 0 1 25.024-11.072c8.064 0 14.336 1.92 18.688 5.696a17.024 17.024 0 0 1 6.592 13.184 16.832 16.832 0 0 1-6.272 12.736c-4.16 3.712-13.824 7.296-28.992 10.624-24.832 5.568-42.56 12.992-53.12 22.208a44.8 44.8 0 0 0-16 35.392 48 48 0 0 0 8.192 26.688 54.336 54.336 0 0 0 24.576 19.776c11.008 4.8 25.984 7.168 45.12 7.168 23.36 0 41.216-4.352 53.504-13.056 12.352-8.704 19.648-22.592 21.952-41.6l-53.376-3.072c-1.408 8.256-4.352 14.208-8.96 17.984a28.736 28.736 0 0 1-18.752 5.632c-6.592 0-11.52-1.408-14.912-4.224a12.8 12.8 0 0 1-4.992-10.176c0-2.88 1.408-5.504 4.16-7.872 2.624-2.432 8.96-4.672 18.944-6.72 24.768-5.376 42.496-10.752 53.184-16.192 10.752-5.44 18.56-12.224 23.424-20.352a51.52 51.52 0 0 0 7.296-27.072c0-11.776-3.2-22.592-9.728-32.512a60.992 60.992 0 0 0-27.264-22.592 110.08 110.08 0 0 0-44.16-7.68c-31.168 0-52.736 6.016-64.704 17.984a71.04 71.04 0 0 0-20.416 45.76z m349.184-33.856c7.104-4.928 11.712-8 13.888-9.28 3.2-1.792 7.68-3.904 13.12-6.4l-15.744-31.68a183.68 183.68 0 0 0-23.488 13.696 201.28 201.28 0 0 0-16.256 11.904c-12.48-5.44-28.16-8.128-46.976-8.128-27.84 0-49.792 7.232-65.92 21.76-19.008 17.152-28.48 41.28-28.48 72.32 0 30.208 8.32 53.632 24.96 70.4 16.64 16.64 39.808 25.024 69.632 25.024 30.464 0 53.952-8.128 70.464-24.512 16.576-16.32 24.832-39.68 24.832-70.08 0-27.136-6.656-48.768-20.032-65.024z m-43.328 28.992c4.48 8.064 6.72 20.16 6.72 36.224 0 18.56-3.456 31.744-10.304 39.68a35.712 35.712 0 0 1-28.416 11.84 34.496 34.496 0 0 1-27.392-12.16c-7.04-8.064-10.496-20.672-10.496-37.824 0-20.032 3.392-34.048 10.24-42.112 6.848-8.128 16.192-12.16 28.16-12.16 3.84 0 7.424 0.384 10.88 1.152a70.08 70.08 0 0 1-22.528 12.992l8.832 20.352a48.128 48.128 0 0 0 11.712-3.328c2.816-1.344 8.256-4.864 16.32-10.496 1.92-1.344 3.968-2.752 6.272-4.16z m85.504 127.488h56.64v-138.112h88.384V64h-145.024v183.232z"  horiz-adv-x="1024" />

    
    <glyph glyph-name="file-plus" unicode="&#59400;" d="M691.712 128v123.712h85.376V128h123.712v-85.312h-123.712v-123.776h-85.376v123.776H568V128h123.712zM505.6-42.688V-128H64V596.288h0.32L355.392 896H812.8v-512h-78.4V810.688h-291.2v-297.472h-0.064v-0.128H152v-555.776H505.6zM186.56 596.288h173.44v178.56l-173.44-178.56z"  horiz-adv-x="1024" />

    
    <glyph glyph-name="file1" unicode="&#59401;" d="M128 595.968v1.344h1.408L426.688 895.744V896H896v-1024H128V595.968z m121.856 1.344h176.832V774.848L249.856 597.312zM213.376 512v-554.688h597.312V810.688H512V512H213.312z"  horiz-adv-x="1024" />

    
    <glyph glyph-name="copy1" unicode="&#59402;" d="M829.568 842.88H960V-128H194.432v121.344H64V611.52L361.92 896h467.648v-53.12z m0-80.896v-768.64H279.488v-40.448h595.456V761.984h-45.44zM149.056 578.048v-503.808h595.456V815.104H397.248L149.12 578.048z"  horiz-adv-x="1024" />

    
    <glyph glyph-name="headset" unicode="&#59403;" d="M862.464 72.064a167.872 167.872 0 0 0-51.84-8.064h-149.312V414.336h199.104V501.888c0 169.472-155.776 306.56-348.416 306.56S163.584 671.36 163.584 501.888v-87.552h199.04V64H213.376C130.752 64 64 122.688 64 195.392v306.56C64 719.488 264.576 896 512 896s448-176.448 448-394.112V0a128 128 0 0 0-128-128H477.568v86.72h320.896a64 64 0 0 1 64 64v49.344z m-2.048 254.72H760.96v-175.232h49.792c27.328 0 49.728 19.712 49.728 43.84V326.72z m-597.312 0H163.584v-131.392c0-24.128 22.4-43.84 49.728-43.84h49.792V326.72z"  horiz-adv-x="1024" />

    
    <glyph glyph-name="phone" unicode="&#59404;" d="M626.24 122.368l37.888 71.168a64 64 0 0 0 72 32l174.72-43.52a64 64 0 0 0 48.512-62.08v-71.936H960V-64C465.152-64 64 337.152 64 832h112v-0.256h70.4a64 64 0 0 0 62.08-48.512l43.52-174.72A64 64 0 0 0 320 536.512L249.92 499.2a787.136 787.136 0 0 1 376.32-376.832z m207.872 7.232l-54.848 13.696a32 32 0 0 1-35.968-16l-29.568-55.488 144.64-36.032v62.784a32 32 0 0 1-24.32 31.04z m-569.472 528.64l-14.592 54.592a32 32 0 0 1-31.488 23.68l-62.784-1.024 38.592-144 54.912 30.464a32 32 0 0 1 15.36 36.288z"  horiz-adv-x="1024" />

    
    <glyph glyph-name="pausecircle" unicode="&#59405;" d="M512-128A512 512 0 1 0 512 896a512 512 0 0 0 0-1024z m3.008 92.992a416 416 0 1 1 0 832 416 416 0 0 1 0-832zM320 576h128v-384H320V576z m256 0h128v-384H576V576z"  horiz-adv-x="1024" />

    
    <glyph glyph-name="stopcircle" unicode="&#59406;" d="M512-128A512 512 0 1 0 512 896a512 512 0 0 0 0-1024z m3.008 92.992a416 416 0 1 1 0 832 416 416 0 0 1 0-832zM320 576h384v-384H320V576z"  horiz-adv-x="1024" />

    
    <glyph glyph-name="playcircle" unicode="&#59407;" d="M512-128A512 512 0 1 0 512 896a512 512 0 0 0 0-1024z m3.008 92.992a416 416 0 1 1 0 832 416 416 0 0 1 0-832zM383.232 608.384l384-224.896-384-223.104v448z"  horiz-adv-x="1024" />

    
    <glyph glyph-name="delete1" unicode="&#59408;" d="M341.312 810.688l64 85.312h213.376l64-85.312H960v-85.376H64V810.688h277.312zM170.688 640h682.624v-768H170.688V640zM256 554.688v-597.376h512V554.688H256z m213.312-85.376v-426.624H384V469.312h85.312z m170.688 0v-426.624H554.688V469.312H640z"  horiz-adv-x="1024" />

    
    <glyph glyph-name="picture1" unicode="&#59409;" d="M0 832l1024 0.128V-64H0V832z m74.56-74.688v-746.624H948.48V757.312H74.56z m623.36-271.552a85.12 85.12 0 1 0-0.064 170.368 85.12 85.12 0 0 0 0.128-170.368z m-305.28-179.392l62.72 73.664 152.32-166.72 119.232 89.536L948.48 64v-53.312h-82.048l-151.04 163.392-119.744-89.856-203.008 222.144z m0 0l-251.904-295.744H74.56V80l252.8 297.792 65.28-71.424zM323.904 373.88800000000003l66.048 77.568 68.032-74.24-2.752 2.816-62.72-73.6 0.256-0.32-0.128-0.192-0.256 0.256 0.128 0.192-65.28 71.424-3.328-3.904z"  horiz-adv-x="1024" />

    
    <glyph glyph-name="mail" unicode="&#59410;" d="M917.504 682.688H104.576l404.544-248.256 408.384 248.256z m21.12-91.072l-429.76-260.48-0.128-0.256-423.424 259.392v-504.96h853.376V591.616zM0 768h1024v-768H0V768z"  horiz-adv-x="1024" />

    
    <glyph glyph-name="like" unicode="&#59411;" d="M760.384 832c47.808 0 91.968-11.968 132.352-35.84a264.32 264.32 0 0 0 95.872-97.152A263.68 263.68 0 0 0 1024 565.12c0-34.752-6.592-68.544-19.712-101.312a262.4 262.4 0 0 0-57.536-87.424L512-64 77.248 376.32A268.8 268.8 0 0 0 0 565.12c0 48.384 11.776 93.056 35.392 133.952A264.32 264.32 0 0 0 131.2 796.16 255.296 255.296 0 0 0 263.68 832 260.736 260.736 0 0 0 449.92 753.792l62.08-62.912 62.144 62.912a258.944 258.944 0 0 0 86.336 58.24A259.584 259.584 0 0 0 760.512 832h-0.128z m0-88.96a174.272 174.272 0 0 1-124.16-52.16L511.872 565.12 387.84 690.88a174.272 174.272 0 0 1-124.288 52.16c-32 0-61.504-7.936-88.384-23.808a175.36 175.36 0 0 1-63.808-64.64 176.32 176.32 0 0 1-23.552-89.536c0-23.168 4.352-45.632 13.056-67.392 8.704-21.824 21.504-41.28 38.4-58.432L512 61.824l372.672 377.408c16.896 17.152 29.696 36.608 38.4 58.432 8.704 21.76 13.056 44.224 13.056 67.392 0 32.448-7.808 62.336-23.488 89.536a175.36 175.36 0 0 1-63.872 64.64 170.688 170.688 0 0 1-88.32 23.808z"  horiz-adv-x="1024" />

    
    <glyph glyph-name="collection" unicode="&#59412;" d="M1024 505.792l-368.128 33.408L512 896 368.128 538.688 0 505.792l279.552-254.912L195.584-128 512 73.024 828.416-128l-83.456 378.88L1024 505.792z m-512-331.968l-192.512-122.368 51.2 230.656-169.984 155.264 224.256 20.48L512 675.008l87.552-217.728 224.256-20.48L653.824 281.6l51.2-230.656L512 173.824z"  horiz-adv-x="1024" />

    
    <glyph glyph-name="user-group" unicode="&#59413;" d="M409.6 768c113.152 0 204.8-93.056 204.8-208S522.752 352 409.6 352c-113.152 0-204.8 93.056-204.8 208S296.448 768 409.6 768z m0-98.816c-59.392 0-107.52-48.896-107.52-109.184s48.128-109.184 107.52-109.184c59.392 0 107.52 48.896 107.52 109.184S468.992 669.184 409.6 669.184z m0-376.64c136.704 0 409.6-68.224 409.6-203.712V-64H0v152.832C0 224.32 272.896 292.48 409.6 292.48z m0-91.328c-152.064 0-312.32-75.968-312.32-109.248v-57.152h624.64v57.152c0 33.28-160.256 109.248-312.32 109.248zM887.488-64v168c0 115.456-133.12 197.248-276.288 214.464 24.832 3.008 74.368 0 94.592 0 136.704 0 318.208-78.976 318.208-214.464V-64h-136.512zM576 394.88A191.872 191.872 0 0 1 702.08 576 191.872 191.872 0 0 1 576 757.12c19.712 7.04 40.96 10.88 63.04 10.88 104.448 0 188.992-85.888 188.992-192 0-106.048-84.544-192-188.992-192A186.24 186.24 0 0 0 576 394.88z"  horiz-adv-x="1024" />

    
    <glyph glyph-name="account-plus" unicode="&#59414;" d="M592.64 314.432a256.384 256.384 0 0 1-63.104-93.12A524.16 524.16 0 0 1 512 221.632c-166.336 0-341.632-81.792-341.632-117.632v-61.632H526.72c14.72-41.344 39.68-77.888 72-106.368H64v164.544C64 246.464 362.496 320 512 320c23.68 0 51.2-1.856 80.64-5.568zM512 832c123.776 0 224-100.224 224-224S635.776 384 512 384a223.936 223.936 0 0 0-224 224C288 731.776 388.224 832 512 832z m0-106.432a117.568 117.568 0 1 1 0-235.136 117.568 117.568 0 0 1 0 235.136zM832 320v-128h128v-128h-128v-128h-128v128H576v128h128V320h128z"  horiz-adv-x="1024" />

    
    <glyph glyph-name="account" unicode="&#59415;" d="M512 725.568a117.568 117.568 0 1 0 0-235.136 117.568 117.568 0 0 0 0 235.136z m0-504c166.336 0 341.632-81.728 341.632-117.568v-61.632H170.368v61.632c0 35.84 175.232 117.632 341.568 117.632zM512 832a223.936 223.936 0 0 1-224-224C288 484.224 388.224 384 512 384s224 100.224 224 224S635.776 832 512 832z m0-512c-149.504 0-448-73.536-448-219.456V-64h896v164.544C960 246.464 661.504 320 512 320z"  horiz-adv-x="1024" />

    
    <glyph glyph-name="cog" unicode="&#59416;" d="M903.232 333.82399999999996c2.432 21.824 3.648 38.592 3.648 50.176 0 17.408-1.6 33.792-3.648 50.176l120.64 102.656-113.664 204.544-158.08-52.736a387.328 387.328 0 0 1-88.96 50.176L633.92 896H396.352l-35.328-157.184c-32.064-12.8-61.568-30.208-88.96-50.176l-155.84 52.736L0.192 536.832 120.96 434.176c-2.112-16.384-3.712-33.28-3.712-50.176s1.6-33.792 3.712-50.176L12.544 238.91200000000003 128 29.18399999999997l144 50.176c27.392-20.48 56.896-37.376 88.96-50.176L394.688-128h239.232l29.248 157.184c32.128 12.8 61.568 30.208 88.96 50.176l145.216-50.176 125.12 209.728-119.232 94.912z m-104.256 87.552c2.112-15.872 2.624-26.624 2.624-37.376 0-10.752-1.024-22.016-2.56-37.376l-7.424-57.856 46.848-35.84 56.832-43.008-36.864-61.952-66.816 26.112-54.72 21.504-47.36-34.816a310.4 310.4 0 0 0-65.856-37.376l-55.744-22.016-8.448-57.856-10.496-69.12H475.264l-9.984 69.12-8.448 57.856-55.808 22.016a300.8 300.8 0 0 0-64.704 36.352l-47.936 35.84-55.744-22.016-66.88-26.112-36.864 61.952 56.896 43.008 46.848 35.84-7.36 57.856A400.768 400.768 0 0 0 222.592 384c0 10.24 1.088 22.016 2.688 37.376l7.36 57.856-46.848 35.84-56.896 43.008 36.864 61.952 66.88-26.112 54.72-21.504 47.36 34.816a310.4 310.4 0 0 0 65.792 37.376l55.808 22.016 8.448 57.856 10.496 69.12H548.48l10.048-69.12 8.384-57.856 55.808-22.016a300.8 300.8 0 0 0 64.768-36.352l47.872-35.84 55.808 22.016 66.816 26.112 36.864-61.952-56.32-43.52-46.848-35.84 7.36-57.856zM512 576a192 192 0 1 1 0-384 192 192 0 1 1 0 384z m0-288c-52.8 0-96 43.2-96 96S459.2 480 512 480s96-43.2 96-96S564.8 288 512 288z"  horiz-adv-x="1024" />

    
    <glyph glyph-name="clock" unicode="&#59417;" d="M511.488 896C228.864 896 0 666.624 0 384s228.864-512 511.488-512C794.624-128 1024 101.376 1024 384s-229.376 512-512.512 512z m21.76-556.416V676.48H438.912v-392.32h1.472l243.84-140.8 47.296 81.728-198.144 114.432zM512-25.6A409.472 409.472 0 0 0 102.4 384c0 226.304 183.296 409.6 409.6 409.6 226.304 0 409.6-183.296 409.6-409.6 0-226.304-183.296-409.6-409.6-409.6z"  horiz-adv-x="1024" />

    
    <glyph glyph-name="calendar-alt" unicode="&#59418;" d="M929.28 793.472H1024V-128H0V793.472h94.72l4.864 0.128h113.728V896H312.96v-102.4h398.208V896h99.584v-102.4h113.728c1.664 0 3.2 0 4.864-0.128zM924.416-25.600000000000023v512H99.584v-512h824.832z m0 614.4V691.2H99.584v-102.4h824.832zM192 384h128v-128H192V384z m256 0h128v-128H448V384z m256 0h128v-128h-128V384z m-512-192h128v-128H192v128z m256 0h128v-128H448v128z m256 0h128v-128h-128v128z"  horiz-adv-x="1024" />

    
    <glyph glyph-name="clouddownload" unicode="&#59419;" d="M469.312 325.76v256h85.376v-256h128L512 139.712 341.312 325.76h128zM1024 255.872C1024 113.088 919.872 0 787.648 0h-512C123.904 0 0 134.4 0 298.496 0 444.032 94.656 564.48 226.432 593.024 284.16 700.544 391.808 768 512 768c152.32 0 282.112-108.416 323.392-261.12C941.888 482.56 1024 376.96 1024 255.808z m-259.2 205.312c-24.448 129.024-128.896 222.72-252.8 222.72-97.28 0-183.04-57.344-224.64-147.456l-9.28-20.224-20.928-2.944c-103.36-14.4-178.368-104.32-178.368-214.72 0-117.952 88.832-214.4 196.928-214.4h512c88.32 0 157.504 75.136 157.504 171.712 0 88.064-65.92 164.928-144.96 171.776l-29.504 2.56-5.888 30.976z"  horiz-adv-x="1024" />

    
    <glyph glyph-name="cloudupload" unicode="&#59420;" d="M554.688 395.648v-256H469.312v256h-128L512 581.76l170.688-186.24h-128zM1024 255.808C1024 113.088 919.872 0 787.648 0h-512C123.904 0 0 134.4 0 298.496 0 444.032 94.656 564.48 226.432 593.024 284.16 700.544 391.808 768 512 768c152.32 0 282.112-108.416 323.392-261.12C941.888 482.56 1024 376.96 1024 255.808z m-259.2 205.312c-24.448 129.024-128.896 222.72-252.8 222.72-97.28 0-183.04-57.344-224.64-147.456l-9.28-20.224-20.928-2.944c-103.36-14.4-178.368-104.32-178.368-214.72 0-117.952 88.832-214.4 196.928-214.4h512c88.32 0 157.504 75.136 157.504 171.712 0 88.064-65.92 164.928-144.96 171.776l-29.504 2.56-5.888 30.976z"  horiz-adv-x="1024" />

    
    <glyph glyph-name="exchange" unicode="&#59421;" d="M512-128A512 512 0 1 0 512 896a512 512 0 0 0 0-1024z m0 85.312A426.688 426.688 0 1 1 512 810.688a426.688 426.688 0 0 1 0-853.376zM387.392 489.728L271.808 383.616l-58.496 58.432 259.2 240.64 0.064-85.44h0.448v-512H387.392v404.48z m254.208-212.288l115.072 104.832 52.928-63.36-253.12-233.792-0.512 98.496V682.56h85.632v-405.12z"  horiz-adv-x="1024" />

    
    <glyph glyph-name="info-circle" unicode="&#59422;" d="M512-128A512 512 0 1 0 512 896a512 512 0 0 0 0-1024z m3.008 92.992a416 416 0 1 1 0 832 416 416 0 0 1 0-832zM448 448h128v-384H448V448z m0 256h128v-128H448V704z"  horiz-adv-x="1024" />

    
    <glyph glyph-name="question-circle" unicode="&#59423;" d="M512-128A512 512 0 1 0 512 896a512 512 0 0 0 0-1024z m3.008 92.992a416 416 0 1 1 0 832 416 416 0 0 1 0-832zM457.792 211.2h130.56v-128.128h-130.56V211.2zM320 498.56c0.576 29.952 5.696 57.408 15.36 82.368 9.728 24.96 23.296 46.592 40.832 64.896a183.68 183.68 0 0 0 63.168 42.88A213.76 213.76 0 0 0 522.24 704c39.36 0 72.256-5.376 98.56-16.192 26.368-10.88 47.616-24.32 63.68-40.384s27.584-33.408 34.56-52.032c6.912-18.56 10.368-35.84 10.368-51.968 0-26.624-3.456-48.512-10.432-65.728a162.048 162.048 0 0 0-59.904-75.328c-12.48-8.576-24.256-17.152-35.328-25.792a165.44 165.44 0 0 1-29.504-29.504c-8.64-11.072-14.08-24.96-16.256-41.6v-31.616H465.6v37.44c1.664 23.872 6.208 43.84 13.696 59.904 7.552 16.064 16.256 29.824 26.24 41.152 9.984 11.392 20.48 21.248 31.616 29.568 11.072 8.32 21.376 16.64 30.784 24.96 9.408 8.32 17.024 17.472 22.848 27.456 5.888 9.984 8.512 22.464 7.936 37.44 0 25.536-6.208 44.352-18.752 56.576-12.48 12.16-29.76 18.304-51.968 18.304-14.976 0-27.84-2.88-38.656-8.704a77.184 77.184 0 0 1-26.688-23.296 101.12 101.12 0 0 1-15.36-34.176 169.408 169.408 0 0 1-4.992-41.984H320z"  horiz-adv-x="1024" />

    
    <glyph glyph-name="exclamation-circle" unicode="&#59424;" d="M512-128A512 512 0 1 0 512 896a512 512 0 0 0 0-1024z m3.008 92.992a416 416 0 1 1 0 832 416 416 0 0 1 0-832zM448 704h128v-384H448V704z m0-512h128v-128H448v128z"  horiz-adv-x="1024" />

    
    <glyph glyph-name="minus-circle1" unicode="&#59425;" d="M512-128A512 512 0 1 0 512 896a512 512 0 0 0 0-1024z m3.008 92.992a416 416 0 1 1 0 832 416 416 0 0 1 0-832zM192 448h640v-128H192V448z"  horiz-adv-x="1024" />

    
    <glyph glyph-name="plus-circle" unicode="&#59426;" d="M448 448V704h128v-256h256v-128H576v-256H448V320H192V448h256z m64-576A512 512 0 1 0 512 896a512 512 0 0 0 0-1024z m3.008 92.992a416 416 0 1 1 0 832 416 416 0 0 1 0-832z"  horiz-adv-x="1024" />

    
    <glyph glyph-name="times-circle" unicode="&#59427;" d="M595.392 391.04l158.4-158.336-90.496-90.496-158.4 158.4-158.4-158.4L256 232.704l158.4 158.4L256 549.504 346.496 640 504.96 481.6 663.296 640l90.496-90.496L595.392 391.04zM512-128A512 512 0 1 0 512 896a512 512 0 0 0 0-1024z m3.008 92.992a416 416 0 1 1 0 832 416 416 0 0 1 0-832z"  horiz-adv-x="1024" />

    
    <glyph glyph-name="check-circle" unicode="&#59428;" d="M512-128A512 512 0 1 0 512 896a512 512 0 0 0 0-1024z m3.008 92.992a416 416 0 1 1 0 832 416 416 0 0 1 0-832zM448 290.88L746.688 576 832 494.528 448 128 192 372.352l85.312 81.472L448 290.88z"  horiz-adv-x="1024" />

    
    <glyph glyph-name="compress-alt" unicode="&#59429;" d="M638.4 590.72L879.616 832 960 751.616 718.464 510.08l132.16-133.248H512V718.208L638.4 590.72zM385.152 173.888L146.56-64.64l-80.384 80.384 238.272 238.272L173.376 384H512v-336l-126.848 125.888z"  horiz-adv-x="1024" />

    
    <glyph glyph-name="expand-alt" unicode="&#59430;" d="M833.6 618.048l-241.216-241.28L512 457.28l241.536 241.536L621.44 832H960v-341.376l-126.4 127.36zM190.848 146.112L429.44 384.64l80.384-80.384-238.272-238.272L402.624-64H64V272l126.848-125.888z"  horiz-adv-x="1024" />

    
    <glyph glyph-name="ban" unicode="&#59431;" d="M199.04 606.528a384 384 0 0 1 535.488-535.488L198.976 606.464zM289.408 696.96l535.552-535.552A384 384 0 0 1 289.536 696.96zM512-128A512 512 0 1 0 512 896a512 512 0 0 0 0-1024z"  horiz-adv-x="1024" />

    
    <glyph glyph-name="minus1" unicode="&#59432;" d="M64 320h896V448H64z"  horiz-adv-x="1024" />

    
    <glyph glyph-name="plus" unicode="&#59433;" d="M576 832H448v-384H64v-128h384v-384h128V320h384V448H576z"  horiz-adv-x="1024" />

    
    <glyph glyph-name="times" unicode="&#59434;" d="M960 741.76L869.76 832 512 474.24 154.24 832 64 741.76 421.76 384 64 26.24 154.24-64 512 293.76 869.76-64 960 26.24 602.24 384z"  horiz-adv-x="1024" />

    
    <glyph glyph-name="check" unicode="&#59435;" d="M369.792 191.68L930.304 768 1024 672.384 369.984 0l-20.288 20.864-0.128-0.128L0 379.2 96.128 472.32l273.664-280.64z"  horiz-adv-x="1024" />

    
    <glyph glyph-name="search-minus" unicode="&#59436;" d="M1005.312-18.752l-198.528 198.464A448 448 0 1 1 0 448a448 448 0 0 1 716.288-358.784l198.4-198.4a64 64 0 1 1 90.624 90.432zM448 128.064A320 320 0 1 0 448 768a320 320 0 0 0 0-640zM256 512v-128h384V512H256z"  horiz-adv-x="1024" />

    
    <glyph glyph-name="search-plus" unicode="&#59437;" d="M1005.312-18.752l-198.528 198.464A448 448 0 1 1 0 448a448 448 0 0 1 716.288-358.784l198.4-198.4a64 64 0 1 1 90.624 90.432zM384 512H256v-128h128v-128h128V384h128V512H512V640H384v-128z m64-384A320 320 0 1 0 448 768a320 320 0 0 0 0-640z"  horiz-adv-x="1024" />

    
    <glyph glyph-name="search1" unicode="&#59438;" d="M1005.312-18.752l-198.528 198.464A448 448 0 1 1 0 448a448 448 0 0 1 716.288-358.784l198.4-198.4a64 64 0 1 1 90.624 90.432zM448 128.064A320 320 0 1 0 448 768a320 320 0 0 0 0-640z"  horiz-adv-x="1024" />

    
    <glyph glyph-name="reply" unicode="&#59439;" d="M398.208 593.088V832L0 413.888l398.208-418.176V240.64c284.48 0 483.584-95.552 625.792-304.64-56.896 298.688-227.584 597.312-625.792 657.088z"  horiz-adv-x="1024" />

    
    <glyph glyph-name="undo" unicode="&#59440;" d="M67.52 440.448v-0.448h115.84l0.128 0.448h275.264L276.672 621.056a336 336 0 1 0 182.08-568.448v-113.472a448 448 0 1 1-263.04 762.24L64 832v-391.552h3.52z"  horiz-adv-x="1024" />

    
    <glyph glyph-name="redo" unicode="&#59441;" d="M1019.880673 448.550313l0.063994-0.511956h-132.468657l-0.063995 0.511956H572.750958l208.110181 206.382328A383.967123 383.967123 0 1 1 870.965424 256.054795h136.820284a511.956164 511.956164 0 1 0-134.388493 490.581994L1023.912328 896v-447.449687h-4.031655z"  horiz-adv-x="1024" />

    
    <glyph glyph-name="external-link" unicode="&#59442;" d="M719.168 688.832L576 832h384v-384l-150.272 150.272-264.128-264.064-90.496 90.496 264.064 264.128zM192-64H64V832h384v-128H192v-640h640V320h128v-384H192z"  horiz-adv-x="1024" />

    
    <glyph glyph-name="arrows-alt" unicode="&#59443;" d="M192 448h192v-128H192v-128L0 384l192 192v-128z m256-384v192h128v-192h128l-192-192-192 192h128z m384 256h-192V448h192V576l192-192-192-192V320zM576 704v-192H448V704H320l192 192 192-192H576z"  horiz-adv-x="1024" />

    
    <glyph glyph-name="indent" unicode="&#59444;" d="M0 832h1024v-128H0V832z m0-768h1024v-128H0v128z m0 384h640v-128H0V448z m768 128l256-196.672L768 192V576z"  horiz-adv-x="1024" />

    
    <glyph glyph-name="outdent" unicode="&#59445;" d="M0 832h1024v-128H0V832z m0-768h1024v-128H0v128z m384 384h640v-128H384V448z m-128-256L0 388.672 256 576v-384z"  horiz-adv-x="1024" />

    
    <glyph glyph-name="sort-line" unicode="&#59446;" d="M326.08 225.27999999999997V832H455.04v-768h-0.64l-0.192-128.128L64 296.70399999999995l88.064 87.68 174.016-159.104z m380.992 318.272v-607.68H577.92V724.352l0.32-0.192L578.816 832 960 481.28l-79.68-94.976-173.248 157.248z"  horiz-adv-x="1024" />

    
    <glyph glyph-name="switch1" unicode="&#59447;" d="M670.72 570.304L511.552 744l87.68 87.872 360.96-389.504L832 442.24v-0.64H64V570.24h606.72z m-318.4-382.08l157.248-172.8-94.976-79.552L63.872 316.16l147.712 0.704v0.128H960v-128.768H352.32z"  horiz-adv-x="1024" />

    
    <glyph glyph-name="wind-descending" unicode="&#59448;" d="M517.056 225.27999999999997L343.68 384.448 256 296.76800000000003l388.736-360.96 0.192 128.192h0.64V832H517.12v-606.72z"  horiz-adv-x="1024" />

    
    <glyph glyph-name="wind-ascending" unicode="&#59449;" d="M512.512 543.552l172.608-157.248 79.36 94.976L384.768 832 384 660.672l0.512-0.512L384 660.48v-724.544h128.512V543.552z"  horiz-adv-x="1024" />

    
    <glyph glyph-name="download1" unicode="&#59450;" d="M1024 0v-128H0v320h128v-192h768v192h128v-192zM576 341.312L810.688 576 896 490.688l-384-384-384 384L213.312 576 448 341.312V896h128v-554.688z"  horiz-adv-x="1024" />

    
    <glyph glyph-name="upload1" unicode="&#59451;" d="M1024 0v-128H0v320h128v-192h768v192h128v-192zM576 661.312V128H448V661.312L213.312 426.688 128 512l384 384 384-384-85.312-85.312L576 661.312z"  horiz-adv-x="1024" />

    
    <glyph glyph-name="arrow-to-bottom" unicode="&#59452;" d="M448 384V896h128v-512h192l-256-256-256 256h192z m576-512H0v128h1024v-128z"  horiz-adv-x="1024" />

    
    <glyph glyph-name="arrow-to-top" unicode="&#59453;" d="M576 384v-512H448V384H256l256 256 256-256H576zM0 896h1024v-128H0V896z"  horiz-adv-x="1024" />

    
    <glyph glyph-name="long-arrow-down" unicode="&#59454;" d="M448 106.688V896h128v-789.312l234.688 234.624L896 256l-384-384-384 384 85.312 85.312L448 106.688z"  horiz-adv-x="1024" />

    
    <glyph glyph-name="long-arrow-up" unicode="&#59455;" d="M576 661.312V-128H448V661.312L213.312 426.688 128 512l384 384 384-384-85.312-85.312L576 661.312z"  horiz-adv-x="1024" />

    
    <glyph glyph-name="arrow-right1" unicode="&#59456;" d="M760.768 320L384-35.84 469.76-128 1024 380.608 474.048 896 384 797.12 753.6 448H0v-128h760.768z"  horiz-adv-x="1024" />

    
    <glyph glyph-name="arrow-left" unicode="&#59457;" d="M263.232 320L640-35.84 554.24-128 0 380.608 549.952 896 640 797.12 270.4 448H1024v-128H263.232z"  horiz-adv-x="1024" />

    
    <glyph glyph-name="sort" unicode="&#59458;" d="M64 448l448 448 448-448H64z m896-128l-448-448-448 448h896z"  horiz-adv-x="1024" />

    
    <glyph glyph-name="sort-down" unicode="&#59459;" d="M64 576l448-448 448 448z"  horiz-adv-x="1024" />

    
    <glyph glyph-name="sort-up" unicode="&#59460;" d="M960 192L512 640l-448-448z"  horiz-adv-x="1024" />

    
    <glyph glyph-name="caret-right" unicode="&#59461;" d="M256 832l448-448-448-448z"  horiz-adv-x="1024" />

    
    <glyph glyph-name="caret-left" unicode="&#59462;" d="M704 832L256 384l448-448z"  horiz-adv-x="1024" />

    
    <glyph glyph-name="arrows-v" unicode="&#59463;" d="M512.32 714.88L733.568 512 832 602.24 512.32 896 192 602.24 291.136 512l221.184 202.88z m-0.64-661.76L290.432 256 192 165.76 511.68-128 832 165.76 732.864 256l-221.184-202.88z"  horiz-adv-x="1024" />

    
    <glyph glyph-name="angle-double-down" unicode="&#59464;" d="M512 118.464l348.416 319.36L960 346.496 512-64 64 346.56 163.584 437.76 512 118.464z m0 394.24L860.416 832 960 740.736 512 330.24 64 740.736 163.584 832 512 512.64z"  horiz-adv-x="1024" />

    
    <glyph glyph-name="angle-double-up" unicode="&#59465;" d="M512 649.536l-348.416-319.36L64 421.504 512 832l448-410.56-99.584-91.2L512 649.536z m0-394.24L163.584-64 64 27.264 512 437.76l448-410.496L860.416-64 512 255.36z"  horiz-adv-x="1024" />

    
    <glyph glyph-name="angle-double-right" unicode="&#59466;" d="M802.88 384L384-34.88 477.12-128l512 512-512 512L384 802.88 802.88 384z m-384 0L0-34.88 93.12-128l512 512-512 512L0 802.88 418.88 384z"  horiz-adv-x="1024" />

    
    <glyph glyph-name="angle-double-left" unicode="&#59467;" d="M186.24 384l418.88-418.88L512-128 0 384l512 512 93.12-93.12L186.176 384z m384 0l418.88-418.88L896-128 384 384l512 512 93.12-93.12L570.176 384z"  horiz-adv-x="1024" />

    
    <glyph glyph-name="angle-down" unicode="&#59468;" d="M512 285.12L930.88 704 1024 610.88l-512-512-512 512L93.12 704z"  horiz-adv-x="1024" />

    
    <glyph glyph-name="angle-up" unicode="&#59469;" d="M512 517.76l-418.88-418.88L0 192l512 512 512-512-93.12-93.12z"  horiz-adv-x="1024" />

    
    <glyph glyph-name="angle-right" unicode="&#59470;" d="M610.88 384L192 802.88 285.12 896l512-512-512-512L192-34.88z"  horiz-adv-x="1024" />

    
    <glyph glyph-name="angle-left" unicode="&#59471;" d="M378.24 384l418.88-418.88L704-128 192 384l512 512 93.12-93.12z"  horiz-adv-x="1024" />

    
    <glyph glyph-name="paperclip" unicode="&#59472;" d="M891.346319 404.901329C959.950803 479.777491 959.950803 600.9232830000001 891.346319 675.799445c-68.796474 74.620176-180.086771 74.620176-248.819249 0L451.176877 467.426124 355.373787 363.239464a78.523976 78.523976 0 0 1 0-104.18666 63.99672 63.99672 0 0 1 95.675097 0l229.684228 250.035185a38.462029 38.462029 0 0 0 39.677967 12.415364 42.557819 42.557819 0 0 0 29.118508-31.742373 46.781602 46.781602 0 0 0-11.391417-43.13379l-229.684228-250.035185a142.584693 142.584693 0 0 0-105.274605-47.357573 142.584693 142.584693 0 0 0-105.210608 47.357573c-58.045025 63.356753-58.045025 165.879499 0 229.172255L527.652958 675.799445l57.469054 62.460799c100.218864 109.178405 263.4105 109.114408 363.629364 0 100.282861-109.114408 100.282861-286.64131 0-395.755717l-191.350193-208.309325-134.009132-145.848525C554.851564-86.33749499999999 461.928326-128.19135000000006 364.973295-127.99936000000002c-96.891034-0.19199-189.878269 41.661865-258.354759 116.282041C37.822062 63.15884300000005 0 162.99372700000004 0 269.48426900000004c0 106.490542 37.822062 206.389423 106.618536 281.265585L412.842842 884.044773a38.270039 38.270039 0 0 0 56.445107-1.023948 47.101586 47.101586 0 0 0 0.959951-61.436851L164.023594 488.161062c-53.309268-57.917032-83.195736-136.696994-82.811756-218.74079 0-82.875753 29.438491-160.567771 82.811756-218.676793 53.245271-58.045025 125.625562-90.491362 200.949701-90.171378 76.156097 0 147.576437 31.99836 200.949701 90.171378l133.241172 144.952572 94.011182 102.330755 21.566894 23.550793 76.604075 83.259733z"  horiz-adv-x="1024" />

    
    <glyph glyph-name="connection" unicode="&#59473;" d="M953.437043 821.378285l-4.031877 4.031877a242.744566 242.744566 0 0 1-342.325516 0L388.974329 607.240843a242.744566 242.744566 0 0 1 0-342.261518l4.031877-4.031877c7.807761-7.871759 16.127506-14.911543 24.767241-21.439343l79.805556 79.805556a130.683998 130.683998 0 0 0-26.1112 20.095385l-4.031876 4.031876a131.195982 131.195982 0 0 0 0 185.402322L685.477249 746.884567a131.195982 131.195982 0 0 0 185.402322 0l4.031877-4.031877a131.25998 131.25998 0 0 0 0-185.402322L776.290468 458.893386a338.549632 338.549632 0 0 0 24.511249-132.347946l152.635326 152.571327a242.744566 242.744566 0 0 1 0 342.325516zM631.078915 507.083911a240.056648 240.056648 0 0 1-24.703243 21.439343L526.506118 448.6537c9.279716-5.503831 18.111445-12.159628 26.1112-20.095385l4.031876-4.031876a131.195982 131.195982 0 0 0 0-185.402322L338.607872 21.146792a131.195982 131.195982 0 0 0-185.402322 0l-4.031877 4.031877a131.25998 131.25998 0 0 0 0 185.402322L247.794653 309.137973a338.549632 338.549632 0 0 0-24.511249 132.347946L70.648078 288.97859a242.744566 242.744566 0 0 1 0-342.325516l4.031877-4.031877a242.808564 242.808564 0 0 1 342.325516 0l218.105321 218.105321a242.744566 242.744566 0 0 1 0 342.325516l-4.031877 4.031877z"  horiz-adv-x="1024" />

    
    <glyph glyph-name="training1" unicode="&#59475;" d="M85.301337 636.768404v-679.787027h853.269342V636.704412H85.301337zM792.604924 721.813773H1023.872016V-128H0V721.813773h231.267092L155.308586 853.253343 229.091364 895.872016 329.750781 721.813773h364.370454l100.595425 174.186227 73.84677-42.618673-75.958506-131.567554zM383.952006 510.00025v-401.485814l341.269341 200.742907L383.952006 509.936258z"  horiz-adv-x="1024" />

    
    <glyph glyph-name="process" unicode="&#59476;" d="M354.88 770.112A164.16 164.16 0 0 0 513.856 896c76.416 0 140.608-52.928 158.656-124.544a463.616 463.616 0 0 0 301.44-435.84c0-29.504-2.816-58.496-8.064-86.528 35.584-30.4 58.112-75.776 58.112-126.528 0-91.456-73.28-165.568-163.712-165.568-22.4 0-43.776 4.48-63.232 12.8A453.12 453.12 0 0 0 515.456-128c-104.128 0-200.256 35.2-277.248 94.4-22.336-11.52-47.68-18.112-74.496-18.112C73.28-51.712 0 22.464 0 113.92c0 54.208 25.792 102.4 65.6 132.544a471.232 471.232 0 0 0-8.448 89.216 463.68 463.68 0 0 0 297.728 434.432z m7.872-103.616a364.672 364.672 0 0 1-208.64-330.56c0-19.2 1.536-38.08 4.352-56.512l5.248 0.064c90.432 0 163.712-74.112 163.712-165.568a166.4 166.4 0 0 0-18.816-77.12 355.712 355.712 0 0 1 205.696-65.216 355.712 355.712 0 0 1 205.824 65.28 166.272 166.272 0 0 0-23.552 85.76c0 91.392 73.28 165.568 163.712 165.568 3.712 0 7.424-0.128 11.072-0.384a371.84 371.84 0 0 1 3.136 48.128c0 146.752-85.76 273.216-209.408 330.88a163.776 163.776 0 0 0-151.232-102.016 163.776 163.776 0 0 0-151.04 101.76z"  horiz-adv-x="1024" />

    
    <glyph glyph-name="news" unicode="&#59477;" d="M85.312 810.688v-853.376h853.376V810.688H85.312zM0 896h1024v-1024H0V896z m170.688-170.688V384h426.624V725.312H170.688z m512 0V384h170.624V725.312h-170.624z m-512-426.624v-85.376h682.624V298.688H170.688z m0-170.688v-85.312h682.624V128H170.688z"  horiz-adv-x="1024" />

    
    <glyph glyph-name="save1" unicode="&#59478;" d="M85.312 810.688v-853.376h853.376v512L597.312 810.688h-512zM0 896h640l384-384v-640H0V896z m170.688-512v-341.312h170.624V384H170.688z m256 0v-341.312h170.624V384H426.688z m256 0v-341.312h170.624V384h-170.624z m-512 341.312v-256h680.192l-253.568 256H170.688z"  horiz-adv-x="1024" />

    
    <glyph glyph-name="print1" unicode="&#59479;" d="M832 128v-192H192v192H0V544A32 32 0 0 0 32 576h960a32 32 0 0 0 32-32V128h-192z m0 512H192V800a32 32 0 0 0 32 32h576a32 32 0 0 0 32-32V640z m-512-384v-192h384v192H320z m544 95.232a64 64 0 1 1 0 128 64 64 0 0 1 0-128z"  horiz-adv-x="1024" />

    
    <glyph glyph-name="new-releases" unicode="&#59480;" d="M661.952 746.048h180.096a32 32 0 0 0 32-32v-180.096l127.36-127.36a32 32 0 0 0 0-45.248l-127.36-127.36v-180.032a32 32 0 0 0-32-32h-180.096l-127.36-127.36a32 32 0 0 0-45.248 0l-127.36 127.36H182.016a32 32 0 0 0-32 32v180.096l-127.36 127.36a32 32 0 0 0 0 45.248l127.36 127.36V713.984a32 32 0 0 0 32 32h180.096l127.36 127.36a32 32 0 0 0 45.248 0l127.36-127.36zM476.8 678.784a32 32 0 0 1-32-32v-298.048a32 32 0 0 1 32-32h80.832a32 32 0 0 1 32 32V646.784a32 32 0 0 1-32 32H476.736z m0-434.432a32 32 0 0 1-32-32v-80.832a32 32 0 0 1 32-32h80.832a32 32 0 0 1 32 32v80.832a32 32 0 0 1-32 32H476.736z"  horiz-adv-x="1024" />

    
    <glyph glyph-name="release" unicode="&#59482;" d="M64 294.4L624 384 64 473.6V832l896-448-896-448V294.4z"  horiz-adv-x="1024" />

    
    <glyph glyph-name="alert" unicode="&#59483;" d="M168.176581 186.517022V493.883028c0 148.766679 118.119466 272.760195 275.058735 301.236563V895.936152h137.529368v-100.752713c156.875421-28.476369 275.058736-152.533732 275.058735-301.236563v-307.429854H958.938521v-126.100511H65.061479v66.785384 59.315127h103.115102zM659.362015-0.30327999999997246c0-70.552438-61.613668-127.69672-137.529368-127.69672C445.853099-128 384.30328-70.85571800000002 384.30328-0.30327999999997246h275.058735zM612.688864 672.722285l-97.432598-0.383091-175.136052-272.249407 80.895873-0.638484h133.315376L436.46739 216.14266099999998h98.90111L703.54508 479.00636l-204.953236 0.574635L612.752712 672.6584359999999z"  horiz-adv-x="1024" />

    
    <glyph glyph-name="backspace" unicode="&#59484;" d="M730.496 384l135.808 135.744-90.56 90.56L640 474.496 504.256 610.304 413.696 519.68 549.504 384l-135.808-135.744 90.56-90.56L640 293.504l135.744-135.808 90.56 90.56L730.496 384zM320 768h704v-768H320L0 382.528 320 768z"  horiz-adv-x="1024" />

    
    <glyph glyph-name="gem" unicode="&#59485;" d="M218.112 832h583.296L1024 511.232 509.76-64 0 511.232 218.112 832z m286.08-504.192l-252.48 287.36-86.72-91.968 339.2-366.464 329.28 366.464-77.184 91.968-252.096-287.36z"  horiz-adv-x="1024" />

    
    <glyph glyph-name="integral" unicode="&#59486;" d="M1027.84064 384a509.376 509.376 0 0 0-511.68-510.08C228.92864-126.08 0.00064 104.576 0.00064 384A509.376 509.376 0 0 0 511.68064 894.08C798.91264 894.08 1027.84064 663.424 1027.84064 384z m-379.648 21.056L517.63264 673.28 388.67264 405.056l-172.16 130.24 49.344-320.192a25.6 25.6 0 0 1-0.192 3.328c2.56-19.84 17.152-36.224 36.928-43.008a33.28 33.28 0 0 1-5.248 1.344c41.984-14.272 124.288-23.552 219.072-22.784 95.36 0.768 173.376 10.24 215.936 25.28 19.712 6.848 34.368 23.296 36.928 43.072l51.456 312.96-172.544-130.24z"  horiz-adv-x="1027" />

    
    <glyph glyph-name="star-circle" unicode="&#59487;" d="M1024 384c0-280.512-223.552-512-509.76-512C228.032-128 0 103.488 0 384s223.552 512 509.76 512C795.968 896 1024 664.512 1024 384z m-512-194.368L709.76 64l-52.48 236.8L832 460.16l-230.08 20.48L512 704 422.08 480.64 192 460.16 366.72 300.8 314.24 64 512 189.632z"  horiz-adv-x="1024" />

    
    <glyph glyph-name="user-circle" unicode="&#59488;" d="M512-128A512 512 0 1 0 512 896a512 512 0 0 0 0-1024z m-292.544 232.064s585.088 0 585.088-1.472V258.304C804.544 342.144 609.536 384 512 384c-97.536 0-292.544-41.92-292.544-125.696v-154.24zM512 457.152a146.304 146.304 0 1 1 0 292.544 146.304 146.304 0 0 1 0-292.544z"  horiz-adv-x="1024" />

    
    <glyph glyph-name="cloud-machine-fill" unicode="&#59489;" d="M960 381.248H448v-153.088H64v311.68h896v-158.592zM320.96 183.68L320 183.296V-128H64v311.68h256.96zM64 896h896v-311.68H64V896z m134.4-133.568v-44.544h89.6v44.544H198.4z m0-356.16v-44.544h89.6v44.544H198.4z m0-356.16v-44.544h89.6v44.544H198.4z m825.6-28.864C1024-62.08 958.912-128 876.288-128h-320C461.44-128 384-49.6 384 46.08c0 84.928 59.136 155.2 141.504 171.84A204.608 204.608 0 0 0 704 320c95.232 0 176.32-63.232 202.112-152.32A151.488 151.488 0 0 0 1024 21.248z"  horiz-adv-x="1024" />

    
    <glyph glyph-name="cloud-machine" unicode="&#59490;" d="M320-38.976V-128H64v311.68h256.96L320 183.296v-88.64H153.6v-133.632H320z m640 356.224H448v-89.088H64v311.68h896v-222.592zM153.6 450.752v-133.504h716.8V450.752H153.6zM64 896h896v-311.68H64V896z m89.6-89.024v-133.568h716.8V806.976H153.6z m44.8-44.544h89.6v-44.544H198.4v44.544z m0-356.16h89.6v-44.544H198.4v44.544z m0-356.16h89.6v-44.544H198.4v44.544z m825.6-28.864C1024-62.08 958.912-128 876.288-128h-320C461.44-128 384-49.6 384 46.08c0 84.928 59.136 155.2 141.504 171.84A204.608 204.608 0 0 0 704 320c95.232 0 176.32-63.232 202.112-152.32A151.488 151.488 0 0 0 1024 21.248z m-96 0a55.552 55.552 0 0 1-41.984 52.544l-56.128 12.032-16 55.168A114.24 114.24 0 0 1 704 224c-40.32 0-76.096-20.608-95.232-53.952l-21.696-37.632-42.56-8.576c-38.4-7.744-64.512-39.296-64.512-77.696 0-43.008 34.752-78.144 76.288-78.144h320c29.312 0 51.712 22.656 51.712 53.248z"  horiz-adv-x="1024" />

    
    <glyph glyph-name="terminal-fill" unicode="&#59491;" d="M0 768v-768h1024V768H0z m242.816-577.536L192 241.28l154.304 154.368L192 549.952l50.816 50.816L448 395.648l-205.184-205.184z m584.32-13.248H512V256h315.072v-78.72z"  horiz-adv-x="1024" />

    
    <glyph glyph-name="terminal" unicode="&#59492;" d="M89.6 89.6h844.8V678.4H89.6v-588.8zM0 768h1024v-768H0V768z m242.816-577.536L192 241.28l154.304 154.368L192 549.952l50.816 50.816L448 395.648l-205.184-205.184z m584.32-13.248H512V256h315.072v-78.72z"  horiz-adv-x="1024" />

    
    <glyph glyph-name="shopping-cart-fill" unicode="&#59493;" d="M1022.4 720H283.072L255.488 832H0v-112h160l131.84-600.96c-29.952-16.96-50.048-48.64-50.048-85.056 0-54.08 44.544-97.984 99.52-97.984 55.04 0 99.584 43.904 99.584 97.984 0 27.456-11.52 52.224-29.888 70.016h372.672a96.96 96.96 0 0 1-29.888-70.016c0-54.08 44.544-97.984 99.52-97.984 55.04 0 99.584 43.904 99.584 97.984a97.92 97.92 0 0 1-56.128 88.256l23.104 93.76H387.84l-11.648 56h556.288l89.984 448z"  horiz-adv-x="1024" />

    
    <glyph glyph-name="resource" unicode="&#59495;" d="M512 448c-70.4 0-128-57.6-128-128s57.6-128 128-128 128 57.6 128 128-57.6 128-128 128z m372.032 448l141.184-156.928L1024-14.20799999999997 1023.872-128H0.192L0-14.20799999999997l0.192 753.28L137.536 896h746.496zM120.576 782.208h782.272l-52.928 56.96H167.232l-46.656-56.96zM758.72 320a237.44 237.44 0 0 1-2.304 31.552l69.568 52.992a15.872 15.872 0 0 1 3.712 20.608L763.904 535.6800000000001c-4.224 6.912-12.672 9.6-20.224 6.912l-81.728-32c-16.96 12.8-35.264 23.296-55.488 31.488l-12.16 84.608A16.96 16.96 0 0 1 577.728 640H446.208a16.896 16.896 0 0 1-16.448-13.696l-12.224-84.608a253.76 253.76 0 0 1-55.488-31.552l-81.728 32a16.832 16.832 0 0 1-20.224-6.848L194.304 424.704a15.872 15.872 0 0 1 3.712-20.608l69.568-52.992A225.152 225.152 0 0 1 265.28 320c0-10.496 0.896-21.056 2.304-31.552l-69.568-52.992a15.872 15.872 0 0 1-3.712-20.608l65.792-110.592c4.224-6.912 12.672-9.6 20.224-6.912l81.728 32c16.96-12.8 35.264-23.296 55.488-31.488l12.16-84.608a16.96 16.96 0 0 1 16.512-13.248h131.584a16.896 16.896 0 0 1 16.448 13.696l12.224 84.608c19.776 8.192 38.528 18.752 55.488 31.552l81.728-32c7.552-2.752 16 0 20.224 6.848l65.792 110.592a15.872 15.872 0 0 1-3.712 20.608l-69.568 52.992c1.408 10.048 2.304 20.608 2.304 31.104z"  horiz-adv-x="1024" />

    
    <glyph glyph-name="rank" unicode="&#59498;" d="M0-42.688h1024V-128H0v85.312zM0 682.688h298.688v-640H0v640z m85.312-85.376V128h128V597.312h-128z m640 85.376H1024v-640h-298.688v640z m85.376-85.376V128h128V597.312h-128zM341.312 896h341.376v-853.312H341.312V896z m85.376-85.312V128h170.624V810.688H426.688z"  horiz-adv-x="1024" />

    
    <glyph glyph-name="sync-alt" unicode="&#59499;" d="M195.776 701.312a448.064 448.064 0 0 0 760.768-261.312H846.08a336.064 336.064 0 0 1-569.408 181.12l182.08-180.672H183.488l-0.064-0.448H67.456l0.064 0.448H64V832l131.776-130.688z m632.448-634.624A448.064 448.064 0 0 0 67.456 328H177.92a336.064 336.064 0 0 1 569.408-181.12L565.248 327.616h275.264l0.064 0.448h115.968l-0.064-0.448H960V-64l-131.776 130.688z"  horiz-adv-x="1024" />

    
    <glyph glyph-name="compass" unicode="&#59500;" d="M0 319.488h98.048a419.584 419.584 0 0 1 349.44-350.208V-128A516.224 516.224 0 0 0 0 319.488z m0 129.024A516.224 516.224 0 0 0 447.488 896v-98.24a419.584 419.584 0 0 1-349.248-349.248H0zM576.512-128v97.152a419.52 419.52 0 0 1 350.336 350.336H1024A516.224 516.224 0 0 0 576.512-128zM1024 448.512h-97.28a419.584 419.584 0 0 1-350.208 349.44V896A516.224 516.224 0 0 0 1024 448.512z m-232.32 214.144L622.848 273.28l-389.44-168.96L403.328 492.8l388.416 169.92zM512 319.488a64.512 64.512 0 1 1 0 129.024 64.512 64.512 0 0 1 0-129.024z"  horiz-adv-x="1024" />

    
    <glyph glyph-name="arrow-alt-from-top" unicode="&#59501;" d="M448 128V640h128v-512h192l-256-256-256 256h192z m576 640H0V896h1024v-128z"  horiz-adv-x="1024" />

    
    <glyph glyph-name="arrow-alt-from-botto" unicode="&#59502;" d="M576 640v-512H448V640H256l256 256 256-256H576zM0 0h1024v-128H0v128z"  horiz-adv-x="1024" />

    
    <glyph glyph-name="menu1" unicode="&#59503;" d="M64 832h896v-128H64V832z m0-768h896v-128H64v128z m0 384h896v-128H64V448z"  horiz-adv-x="1024" />

    
    <glyph glyph-name="icon-drag" unicode="&#59504;" d="M128 896h256v-256H128V896z m0-384h256v-256H128V512z m0-384h256v-256H128v256z m512 768h256v-256h-256V896z m0-384h256v-256h-256V512z m0-384h256v-256h-256v256z"  horiz-adv-x="1024" />

    
    <glyph glyph-name="early-warning" unicode="&#59505;" d="M832 64h128v-128H64v128h128V512a320 320 0 1 0 640 0v-448zM478.208 493.056L624.64 704H518.016l-213.12-306.24 88.768-0.64v-0.064h146.304l-146.496-210.496 106.688-0.64 212.928 306.56 0.576 0.576H478.08z"  horiz-adv-x="1024" />

    
    <glyph glyph-name="share1" unicode="&#59506;" d="M625.792 593.088V832L1024 413.888l-398.208-418.176V240.64C341.312 240.64 142.208 145.088 0-64c56.896 298.688 227.584 597.312 625.792 657.088z"  horiz-adv-x="1024" />

    
    <glyph glyph-name="share2" unicode="&#59507;" d="M812.333229 193.003937c-46.845072 0-89.466408-18.430848-119.288544-51.132804L319.564027 359.20155a103.801512 103.801512 0 0 1 0 51.132804l373.480658 215.858509c29.822136-32.63796 72.443472-52.540716 119.288544-52.540716 90.87432 1.407912 159.094057 69.563652 160.501969 160.437972C971.491282 824.96444 903.271546 894.592088 812.333229 896c-90.87432-1.407912-160.437973-71.03556-161.90988-161.909881 0-9.91938 1.471908-19.83876 2.87982-29.822136L282.638335 491.225298A160.629961 160.629961 0 0 1 161.941879 545.301919C71.067558 543.830011 1.43991 475.546278 0.031998 384.671958c1.407912-90.87432 71.03556-159.030061 161.909881-160.501969 46.845072 0 90.87432 21.310668 120.696456 54.012625l370.664834-214.450597c-1.407912-9.983376-2.815824-19.83876-2.815824-31.230048 1.407912-90.87432 71.03556-159.094057 161.90988-160.501969 90.87432 1.407912 159.030061 69.563652 160.437973 160.501969-1.407912 90.87432-69.563652 159.030061-160.501969 160.437972z"  horiz-adv-x="1024" />

    
    <glyph glyph-name="management-" unicode="&#59508;" d="M960 896v-1024H64V896h896zM288 64a32 32 0 1 1 0-64 32 32 0 0 1 0 64z m97.28 0v-64h398.08v64H385.28zM288 192a32 32 0 1 1 0-64 32 32 0 0 1 0 64z m96 0v-64h399.36v64H384z m312.192 410.24C683.776 695.872 606.016 768 511.936 768S340.16 695.808 327.744 602.24C251.968 596.992 192 532.032 192 452.608c0-82.816 65.28-150.016 145.792-150.016 2.752 0 5.568 0.192 8.32 0.32v-0.32h341.824v0.128C767.616 303.616 832 370.368 832 452.672c-0.064 79.36-60.032 144.32-135.808 149.568z"  horiz-adv-x="1024" />

    
    <glyph glyph-name="accesskeys" unicode="&#59509;" d="M272 773.76h480v-157.056h96V895.552h-96L272 896c-52.8 0-96-0.448-96-0.448v-278.848h96v157.12z m403.648-603.392L896 384 675.648 597.632 608 531.52 760.128 384 608 236.48l67.648-66.112zM416 236.48L263.808 384 416 531.52l-67.712 66.112L128 384l220.288-213.632L416 236.48z m336-242.304H272v157.12h-96V-128h672V151.296h-96v-157.12z"  horiz-adv-x="1024" />

    
    <glyph glyph-name="arrow-sortdown-smal" unicode="&#59511;" d="M232 504L512 224l280 280z"  horiz-adv-x="1024" />

    
    <glyph glyph-name="minus-square-fill" unicode="&#59512;" d="M0 896h1024v-1024H0V896z m213.312-469.376v-85.312h597.376V426.624H213.312z"  horiz-adv-x="1024" />

    
    <glyph glyph-name="plus-square-fill" unicode="&#59513;" d="M0 896h1024v-1024H0V896z m554.624-213.312H469.312v-256h-256v-85.376h256v-256h85.312v256h256V426.624h-256v256z"  horiz-adv-x="1024" />

    
    <glyph glyph-name="minus-square" unicode="&#59514;" d="M85.312 810.688v-853.376h853.376V810.688H85.312zM0 896h1024v-1024H0V896z m213.312-469.376h597.376v-85.312H213.312V426.624z"  horiz-adv-x="1024" />

    
    <glyph glyph-name="plus-square" unicode="&#59515;" d="M85.312 810.688v-853.376h853.376V810.688H85.312zM0 896h1024v-1024H0V896z m554.624-213.312v-256h256v-85.376h-256v-256H469.312v256h-256V426.624h256v256h85.312z"  horiz-adv-x="1024" />

    
    <glyph glyph-name="stepmode" unicode="&#59517;" d="M85.312 810.688v-853.376h512V810.688h-512zM0 896h682.688v-1024H0V896z m768-170.688h85.312v-682.624H768V725.312z m170.688-170.624H1024v-341.376h-85.312V554.688z"  horiz-adv-x="1024" />

    
    <glyph glyph-name="scrollingmode" unicode="&#59518;" d="M85.312 810.688v-853.376h853.376V810.688H85.312zM0 896h1024v-1024H0V896z m469.312-682.688v128h85.376v-128h138.304L512 32.32l-180.992 180.992h138.304z m85.376 341.376v-128H469.312v128H331.008L512 735.68l180.992-180.992H554.688z"  horiz-adv-x="1024" />

    
    <glyph glyph-name="shoppingcart" unicode="&#59521;" d="M384-64c-47.104 0-85.312 36.48-85.312 81.472S336.896 98.88 384 98.88s85.312-36.48 85.312-81.408C469.312-27.52 431.104-64 384-64z m426.688 0c-47.168 0-85.376 36.48-85.376 81.472s38.208 81.408 85.376 81.408c47.104 0 85.312-36.48 85.312-81.408C896-27.52 857.792-64 810.688-64zM262.272 709.76H1024l-91.968-407.232h-577.92l13.12-58.56h554.112l-18.56-81.408H298.24l-31.552 139.968h-0.256l-59.52 265.6-41.152 182.4H0V832h234.752l27.52-122.24z m18.368-81.408L335.68 384h527.424l55.232 244.352H280.64z"  horiz-adv-x="1024" />

    
    <glyph glyph-name="waiting-fill" unicode="&#59522;" d="M512-128A512 512 0 1 0 512 896a512 512 0 0 0 0-1024zM320 320a64 64 0 1 1 0 128 64 64 0 0 1 0-128z m192 0a64 64 0 1 1 0 128 64 64 0 0 1 0-128z m192 0a64 64 0 1 1 0 128 64 64 0 0 1 0-128z"  horiz-adv-x="1024" />

    
    <glyph glyph-name="waiting" unicode="&#59523;" d="M512-128A512 512 0 1 0 512 896a512 512 0 0 0 0-1024z m0 85.312A426.688 426.688 0 1 1 512 810.688a426.688 426.688 0 0 1 0-853.376zM320 320a64 64 0 1 0 0 128 64 64 0 0 0 0-128z m192 0a64 64 0 1 0 0 128 64 64 0 0 0 0-128z m192 0a64 64 0 1 0 0 128 64 64 0 0 0 0-128z"  horiz-adv-x="1024" />

    
    <glyph glyph-name="right-arrow-rect" unicode="&#59524;" d="M85.312 725.312h853.376V640H85.312V725.312z m0 85.376v-853.376h853.376V810.688H85.312zM0 896h1024v-1024H0V896z m587.008-554.688V479.68L768 298.688l-180.992-181.056V256H245.632V341.312h341.376z"  horiz-adv-x="1024" />

    
    <glyph glyph-name="left-arrow-rect" unicode="&#59525;" d="M85.312 725.312h853.376V640H85.312V725.312z m0 85.376v-853.376h853.376V810.688H85.312zM0 896h1024v-1024H0V896z m426.688-554.688H768V256H426.688v-138.368L245.632 298.688l181.056 180.992v-138.368z"  horiz-adv-x="1024" />

    
    <glyph glyph-name="bell" unicode="&#59527;" d="M803.904 116.096l-63.04 82.752c-16.832 18.56-26.24 43.52-26.24 69.376V461.44c0 61.952-20.736 118.4-57.728 158.912a189.248 189.248 0 0 1-62.976 45.568 212.096 212.096 0 0 1-164.928 0c-23.68-10.496-44.8-25.728-62.848-45.44-37.12-40.704-57.792-97.088-57.792-159.104v-193.28c0-25.92-9.536-50.688-26.752-70.016l-62.848-82.624 585.152 0.576zM128 136.96l86.848 114.304 2.816 3.328a19.584 19.584 0 0 1 5.44 13.568V461.44c0 82.688 28.288 159.744 80.064 216.576a271.872 271.872 0 0 0 91.392 65.92c72.192 32 161.792 32 233.984 0 34.56-15.36 65.28-37.568 91.264-65.92 51.84-56.832 80-133.824 80-216.64v-193.28c0-4.992 1.856-9.6 4.288-12.16l3.264-3.712 87.296-114.56 1.344-106.88-767.68-0.768L128 136.96z m213.184-179.712h341.12V-128H341.12v85.312zM426.496 896h170.496v-85.312H426.496V896z"  horiz-adv-x="1024" />

    
    <glyph glyph-name="structured-data" unicode="&#59528;" d="M85.312 640h853.376V810.688H85.312V640z m0-85.312v-597.376h853.376V554.688H85.312zM0 896h1024v-1024H0V896z m341.312-85.312h85.376V640H341.312V810.688zM256 384h341.312v-170.688H256V384z"  horiz-adv-x="1024" />

    
    <glyph glyph-name="drag1" unicode="&#59241;" d="M288 704a96 96 0 1 0 0 192 96 96 0 0 0 0-192z m0-277.312a96 96 0 1 0 0 192 96 96 0 0 0 0-192z m0-277.376a96 96 0 1 0 0 192 96 96 0 0 0 0-192zM288-128a96 96 0 1 0 0 192 96 96 0 0 0 0-192z m448 832a96 96 0 1 0 0 192 96 96 0 0 0 0-192z m0-277.312a96 96 0 1 0 0 192 96 96 0 0 0 0-192z m0-277.376a96 96 0 1 0 0 192 96 96 0 0 0 0-192z m0-277.312a96 96 0 1 0 0 192 96 96 0 0 0 0-192z"  horiz-adv-x="1024" />

    
    <glyph glyph-name="vector" unicode="&#59529;" d="M85.312 15.744000000000028L916.352 846.72l60.352-60.288L147.648-42.68799999999999H1024V-128H0V896h85.312v-880.256zM339.2 597.312l60.352-60.288-211.2-211.2L128 386.176l211.2 211.2zM509.824 768l60.352-60.352-90.496-90.496-60.352 60.352L509.824 768z m303.872-384l60.352-60.352-301.696-301.696L512 82.30399999999997 813.696 384z"  horiz-adv-x="1024" />

    
    <glyph glyph-name="ellipsis-vertical" unicode="&#59242;" d="M512 640c70.4 0 128 57.6 128 128s-57.6 128-128 128-128-57.6-128-128 57.6-128 128-128z m0-128c-70.4 0-128-57.6-128-128s57.6-128 128-128 128 57.6 128 128-57.6 128-128 128z m0-384c-70.4 0-128-57.6-128-128s57.6-128 128-128 128 57.6 128 128-57.6 128-128 128z"  horiz-adv-x="1024" />

    
    <glyph glyph-name="NEW-copy" unicode="&#59530;" d="M0 640h1024v-512H0V640z m162.112-155.52V256h37.44V423.04h1.28L315.072 256h36.48V484.48h-37.76v-164.8h-1.28L199.552 484.48h-37.44z m234.24 0V256h170.24v32H433.728V357.12h119.68v32h-119.68v63.36h127.36v32H396.224z m184.64 0L646.528 256h40l44.8 171.84h1.28L777.152 256h39.68l65.92 228.48h-42.24l-42.88-173.76h-1.28l-45.12 173.76h-38.72l-45.12-173.76h-1.28l-42.88 173.76h-42.24z"  horiz-adv-x="1024" />

    
    <glyph glyph-name="gallery-view" unicode="&#59243;" d="M288 608.1279999999999V832H64v-224l224 0.128z m112-672h224V160h-224v-224z m-336 0h224V160H64v-224z m0 336h224v224H64v-224z m336 0h224v224h-224v-224z m336 336H960V832h-224v-223.872z m-112 0V832h-224v-224l224 0.128zM960 272.12800000000004v224h-224v-224H960z m0-336V160h-224v-224H960z"  horiz-adv-x="1024" />

    
    <glyph glyph-name="HOT-copy" unicode="&#59531;" d="M0 640h1024v-512H0V640z m194.24-155.52V256h37.44V357.12h115.84V256h37.44V484.48H347.52v-95.36H231.68V484.48h-37.44zM531.2 488.96c-35.2 0-62.72-11.2-82.56-34.24-19.2-21.76-28.48-49.92-28.48-84.8 0-34.56 9.28-62.72 28.48-84.48 19.84-22.4 47.36-33.92 82.56-33.92 34.88 0 62.4 11.2 82.56 33.6 19.2 21.44 28.8 49.6 28.8 84.8 0 35.2-9.6 63.68-28.8 85.12-20.16 22.72-47.68 33.92-82.56 33.92z m0-32.96c23.68 0 41.92-7.36 54.72-22.72 12.48-15.36 18.88-36.48 18.88-63.36 0-26.88-6.4-47.68-18.88-62.72-12.8-15.04-31.04-22.72-54.72-22.72s-42.24 8-55.04 23.68c-12.48 15.36-18.56 35.84-18.56 61.76 0 26.24 6.08 46.72 18.56 62.08 13.12 16 31.36 24 55.04 24z m128.96 28.48v-32h74.88V256h37.44V452.48h74.88v32h-187.2z"  horiz-adv-x="1024" />

    
    <glyph glyph-name="WIFI" unicode="&#59244;" d="M0 543.168l93.12-98.752c231.296 245.44 606.464 245.44 837.76 0L1024 543.168C741.44 842.944 283.008 842.944 0 543.168z m372.352-395.008L512 0l139.648 148.16c-76.8 81.92-202.048 81.92-279.296 0zM186.24 345.6l93.12-98.752c128.448 136.32 336.96 136.32 465.408 0L837.824 345.6c-179.648 190.592-471.488 190.592-651.648 0z"  horiz-adv-x="1024" />

    
    <glyph glyph-name="home1" unicode="&#59532;" d="M169.024 299.968v-280.512h149.12v167.488h382.528v-167.488h149.12V302.464L509.632 544.256 169.024 299.968z m340.352 347.52l425.536-302.4V-64h-319.36v167.488H403.264V-64H83.84V342.336L509.44 647.552zM49.664 404.992L0 472.832 509.248 832 1024 472.832l-49.28-67.968-465.152 324.48L49.664 404.992z"  horiz-adv-x="1024" />

    
    <glyph glyph-name="bug-report" unicode="&#59245;" d="M250.496 576h523.008l49.152 49.152 90.496-90.496L832 453.504V384h128v-128h-128v-6.464c0-38.016-6.592-74.432-18.752-108.224l99.84-99.968-90.432-90.496-78.464 78.464A319.488 319.488 0 0 0 576-64v188.16a64 64 0 1 1-128 0V-64a319.488 319.488 0 0 0-168.192 93.44l-78.464-78.528-90.496 90.496 99.904 99.968A319.424 319.424 0 0 0 192 249.536V256H64V384h128V453.504L110.848 534.656l90.496 90.496 49.152-49.152zM320 640a192 192 0 1 0 384 0H320z"  horiz-adv-x="1024" />

    
    <glyph glyph-name="monitoring" unicode="&#59534;" d="M0 896h1024v-853.312H0V896z m85.312-85.312V128h853.376V810.688H85.312z m85.376-853.376h682.624V-128H170.688v85.312z m480.32 423.424L449.536 537.152 339.84 380.79999999999995H170.688V466.112h124.8l135.68 193.408 249.024-193.408h173.12v-85.376h-202.304z"  horiz-adv-x="1024" />

    
    <glyph glyph-name="qrcode" unicode="&#59246;" d="M85.312 810.688V512H384V810.688H85.312zM0 896h469.248v-469.248H0V896z m170.624-170.624h128v-128h-128v128zM0 341.376h469.248v-469.248H0V341.376z m85.312-85.312v-298.624H384V256.064H85.312z m85.312-85.312h128v-128h-128v128zM554.624 896h469.248v-469.248H554.624V896z m85.312-85.312V512h298.624V810.688H639.936z m383.936-682.56H1024v-85.376h-298.752V256.064H639.936V-127.872H554.624V341.376h255.936v-213.248h128V341.376h85.312v-213.248z m-298.624 597.248h128v-128h-128v128z m298.624-853.248h-85.312v85.312h85.312v-85.312z m-213.312 0h-85.312v85.312h85.312v-85.312z"  horiz-adv-x="1024" />

    
    <glyph glyph-name="diagnose" unicode="&#59535;" d="M883.584 221.05600000000004C732.16 32 512.448-128 512.448-128s-224.32 157.44-375.808 349.056h112.64c20.608-23.104 42.944-46.528 66.816-70.144a2134.336 2134.336 0 0 1 195.584-170.24 2402.88 2402.88 0 0 1 196.736 174.912c22.016 22.016 42.752 43.904 62.08 65.472h113.088z m126.4 218.24H919.04c13.056 32 19.52 60.8 19.52 85.504 0 122.56-89.6 219.904-197.44 219.904-62.592 0-120.704-32.96-158.208-88.896L512.448 550.72l-70.4 105.088c-37.568 55.936-95.616 88.96-158.272 88.96C159.488 744.704 86.4 672.64 86.4 524.8c0-25.472 5.952-54.08 17.92-85.504H14.08A305.536 305.536 0 0 0 0.96 524.8c0 211.2 126.656 307.2 282.88 307.2 94.08 0 177.152-50.112 228.608-126.848C563.904 781.888 647.04 832 741.12 832 897.28 832 1024 694.4 1024 524.8c0-27.776-4.992-56.384-14.08-85.504zM544.64 280.96000000000004h-55.808L382.72 447.616 272.64 281.024H0V368.32000000000005h227.2l156.864 237.184L522.24 388.608l114.944 137.408 134.4-157.696H1024v-87.296h-291.328l-94.912 111.36-93.12-111.36z"  horiz-adv-x="1024" />

    
    <glyph glyph-name="scan" unicode="&#59247;" d="M885.312 10.688V272H960V-64H624v74.688h261.312zM64 10.688V272h74.688v-261.312H400V-64H64v74.688zM960 757.312V496h-74.688V757.312H624V832H960v-74.688z m-821.312 0V496H64V832h336v-74.688H138.688zM64 421.312h896v-74.624H64V421.312z"  horiz-adv-x="1024" />

    
    </font>
</defs>
</svg>
